<?xml version="1.0" standalone="no"?>
<!DOCTYPE svg PUBLIC "-//W3C//DTD SVG 1.1//EN" "http://www.w3.org/Graphics/SVG/1.1/DTD/svg11.dtd" >
<svg>
<metadata>
Created by FontForge 20090914 at Fri Feb 24 04:55:20 2012
 By root
www.anke-art.de - Donation Ware! Do not redistribute!
</metadata>
<defs>
<font id="AckiPreschool" horiz-adv-x="492" >
  <font-face 
    font-family="Acki Preschool"
    font-weight="400"
    font-stretch="normal"
    units-per-em="1000"
    panose-1="0 0 0 0 0 0 0 0 0 0"
    ascent="800"
    descent="-200"
    x-height="387"
    cap-height="791"
    bbox="-76.8889 -400 573 944"
    underline-thickness="50"
    underline-position="-75"
    unicode-range="U+0020-U+E001"
  />
<missing-glyph horiz-adv-x="500" 
 />
    <glyph glyph-name=".notdef" horiz-adv-x="500" 
 />
    <glyph glyph-name="space" unicode=" " horiz-adv-x="500" 
 />
    <glyph glyph-name="exclam" unicode="!" horiz-adv-x="154" 
d="M94 752q-2 8 -10 8h-11q-6 0 -14 -1t-8 -11q0 -1 0.5 -2l0.5 -1q2 -2 7 -4.5t7 -2.5q3 -21 4 -37.5l2 -31.5t1 -31v-35q0 -59 -4.5 -118t-10 -118t-10 -117.5t-4.5 -117.5v-12q0 -8 0.5 -17.5t0.5 -18.5v-11l7 -7h3h4q2 1 4.5 3.5t2.5 3.5q5 15 6 28t1 26t-0.5 27t0.5 31
q0 7 2 29t4 51.5t4.5 63t5 63t4 51.5t1.5 29v20t0.5 39.5t0.5 44.5v36v28t-0.5 42t-0.5 42v28zM136 -86q0 10 0.5 22t-1.5 22.5t-7.5 17.5t-18.5 7q-8 0 -25.5 -4t-35.5 -10t-31.5 -14.5t-13.5 -17.5q0 -49 20.5 -79.5t70.5 -30.5q2 0 10.5 0.5t10.5 0.5q5 22 13 42.5
t8 43.5zM94 -165q-3 1 -3 4q0 2 3 3t3 -3q0 -5 -3 -4z" />
    <glyph glyph-name="comma" unicode="," horiz-adv-x="112" 
d="M48 -116l14 -7h4q1 2 4.5 15.5t7.5 33.5t8 43.5t6.5 45t3 39.5t-1.5 27l7 7v4v3q-1 2 -3.5 4.5t-3.5 2.5q-2 0 -7 -0.5t-10.5 -2t-11 -4.5t-6.5 -7q7 -39 4.5 -67t-8 -50.5t-9 -42.5t1.5 -44z" />
    <glyph glyph-name="minus" unicode="-" horiz-adv-x="282" 
d="M25 252q24 5 44 1t42.5 -9t50 -7.5t66.5 4.5q4 -1 7 -6t4.5 -11t2 -11.5t0.5 -6.5t-2.5 -3.5t-4.5 -3.5h-3h-4l-7 7q-14 -3 -45.5 0t-65 8.5t-61 11.5t-31.5 8v4z" />
    <glyph glyph-name="period" unicode="." horiz-adv-x="161" 
d="M10 101q0 -30 22 -52t50 -22q41 0 55 25.5t14 63.5q0 3 -0.5 15t-0.5 16q-3 7 -14.5 12.5t-25.5 9t-27.5 5t-20.5 1.5q-12 0 -21.5 -8t-16 -20t-10.5 -24.5t-4 -21.5zM80 91q3 -1 3 -4q0 -2 -3 -3t-3 3q0 5 3 4z" />
    <glyph glyph-name="zero" unicode="0" horiz-adv-x="414" 
d="M9 483q0 -30 1.5 -72t8 -87.5t18.5 -89.5t33.5 -79.5t53.5 -57t77 -21.5q4 0 16.5 1t16.5 1q44 34 76 79.5t53 98t31 108.5t10 110q0 51 -8.5 100t-21.5 98t-29 96.5l-32 95.5v5v6q2 1 16.5 5.5t31 11t29.5 15.5t13 18v6q-1 2 -5 6t-6 5q-14 -7 -25 -11.5t-21.5 -7
t-21 -3.5t-23.5 -1q-15 0 -27.5 4t-24.5 8.5t-25 8.5t-29 4q-5 0 -19.5 -0.5t-19.5 -1.5q-19 -14 -27 -29.5t-8 -38.5q0 -14 3 -23.5t20 -9.5q25 0 48.5 6t49.5 6q23 0 41.5 -22.5t33 -57.5t24.5 -78.5t16.5 -85.5t9.5 -78t3 -56q0 -19 -5 -53t-14.5 -74.5t-24 -82.5
t-33 -76.5t-41 -56.5t-49.5 -22q-37 0 -63 21t-44 54.5t-28.5 75.5t-16 83.5t-7 78t-1.5 60.5q0 40 3.5 86.5t15.5 90.5t34.5 82.5t59.5 64.5q-3 9 -9.5 11t-13.5 2q-25 0 -44 -20.5t-32.5 -52.5t-23 -71.5t-15 -77t-7.5 -68.5t-2 -47zM190 910q14 0 29.5 -1t26.5 -12
q-24 -7 -38.5 -9t-34.5 -2h-17l11 22q1 1 9.5 1.5t13.5 0.5z" />
    <glyph glyph-name="one" unicode="1" horiz-adv-x="212" 
d="M156 112l11 -11q12 8 17 19t6.5 24t1 26t-0.5 25q0 27 -5.5 52.5t-12.5 50.5t-12.5 50.5t-5.5 53.5q0 92 12.5 176t33.5 174v12q0 7 -1 12.5t-10 9.5q-30 -23 -45 -53.5t-34 -59.5q-6 -8 -20 -29l-30 -44l-30.5 -44t-20.5 -29l-0.5 -2t-0.5 -3q0 -2 0.5 -4l0.5 -2
q2 -2 6 -6.5t5 -4.5q18 0 31.5 14t25 32.5t22 37.5t22.5 28v-280q28 -52 35 -110t-1 -115z" />
    <glyph glyph-name="two" unicode="2" horiz-adv-x="391" 
d="M21 112q33 -2 64.5 -7.5t62.5 -11.5t62 -11t63 -5h13t18.5 0.5t18.5 0.5h12q22 13 34 21.5t12 33.5q0 8 -0.5 21.5t-3 26.5t-8.5 22.5t-17 9.5h-4t-2 -1q-2 -1 -6 -5t-5 -6q1 -3 2.5 -11t3.5 -17t3.5 -17t1.5 -11l0.5 -2.5t0.5 -3.5t-0.5 -3l-0.5 -2q-2 -3 -10.5 -11.5
t-11.5 -10.5q-3 0 -10 -0.5t-16 -0.5h-15h-10q-29 0 -57 4.5t-56.5 10.5l-57 11.5t-58.5 7.5q0 3 -0.5 10t-1 15.5t-0.5 15.5v10q0 81 24 160t67 148q18 27 37.5 48.5t36.5 43t28 46t11 58.5v10v15t-0.5 15t-0.5 10q-14 17 -24.5 28t-22 17.5t-25 9t-34.5 2.5t-44 -7.5
t-42 -21.5t-31.5 -33.5t-12.5 -44.5q0 -2 0.5 -3.5t0.5 -2.5q1 -2 5 -6t6 -5q17 13 28 29t22.5 30t27 23t40.5 9q24 0 40.5 -7.5t32.5 -27.5q0 -5 0.5 -19.5t0.5 -19.5q0 -31 -12 -54.5t-29 -44t-37 -41t-35 -45.5q-49 -76 -71 -161.5t-22 -175.5q0 -5 0.5 -13.5l1 -17.5
t1 -16t0.5 -8z" />
    <glyph glyph-name="three" unicode="3" horiz-adv-x="436" 
d="M167 174q0 -20 9 -41t24 -38.5t33.5 -29t37.5 -11.5q48 0 78 24t47.5 60.5t24 79t6.5 79.5q0 5 -0.5 17t-0.5 25t-0.5 25t-0.5 17q-7 18 -31 42t-49.5 46.5l-45.5 39t-20 18.5q0 12 7 24t16 25t16 26.5t7 28.5q0 24 -6 53.5t-18 57t-31.5 48.5t-46.5 28q-3 0 -12 0.5
t-19 0.5h-18h-13q-11 0 -36.5 -1.5t-51 -7.5t-45 -18.5t-19.5 -34.5q0 -2 0.5 -4l0.5 -2q1 -2 5 -6t6 -5q19 13 35 22t32 14.5t33.5 7.5t40.5 2q33 0 57.5 -11.5t40.5 -32t23.5 -49t7.5 -61.5q0 -8 -5 -23.5t-13 -31.5t-18 -27.5t-21 -11.5h-112q-2 0 -10.5 -8.5
t-11.5 -13.5q-1 -1 -1 -6q0 -11 9 -17t21 -8.5t24.5 -3t19.5 -0.5q5 0 15.5 0.5t12.5 0.5q1 0 6 1.5t10.5 4t10.5 4t6 1.5q21 0 47 -12t49 -30.5t40 -40t21 -40.5q0 -4 0.5 -14.5l1 -22t0.5 -22.5v-14q0 -28 -4 -64t-17 -68.5t-37 -54.5t-63 -22q-21 0 -32.5 12.5
t-20.5 29.5l-17.5 34t-23.5 27l-6 -6t-5 -6v-5z" />
    <glyph glyph-name="four" unicode="4" horiz-adv-x="425" 
d="M222 85q0 -7 -0.5 -15t1.5 -15.5t7 -13t16 -8.5q2 0 6 4.5t5 6.5v13v21v21v13q1 12 3.5 37.5l5.5 57.5t7 67.5t7 67.5t6 57.5t4 37.5q2 2 11 6.5t12 4.5q5 0 17.5 0.5t26.5 0.5q15 0 28 -0.5t18 -0.5q2 1 6 5t5 6v6v5q-2 3 -6 7.5t-5 4.5h-113l-33 179q-1 2 -5 6t-6 5
q-1 1 -3 1h-3h-3t-3 -1q-2 -1 -6 -5t-5 -6q1 -8 4.5 -29l7.5 -44t7 -44t4 -29q0 -4 -1.5 -16.5t-1.5 -16.5h-166q-1 0 -5 8.5t-6 13.5q-1 4 -2.5 13.5t-3.5 20t-3.5 20t-1.5 13.5q-1 12 -3 40.5t-3.5 61t-3 61t-1.5 39.5l-23 23q-2 -1 -6 -5.5t-5 -6.5v-4q0 -29 -0.5 -70.5
t2.5 -86t10 -88t22 -76.5q2 -4 6 -10.5t5 -6.5h187q0 -90 -10 -178.5t-10 -178.5z" />
    <glyph glyph-name="five" unicode="5" horiz-adv-x="504" 
d="M10 113q0 -26 14 -50.5t35.5 -43.5t47 -30.5t49.5 -11.5q2 0 6.5 0.5l4.5 0.5q2 1 10.5 6t17.5 11t17.5 11t10.5 6q39 18 69.5 26.5t57 18.5t52.5 26.5t57 51.5q4 5 10 13.5t11 18t9 19t4 17.5v190q0 2 -5 13t-12.5 25.5l-15 29t-12.5 22.5q-14 24 -37 41t-50 28
t-56 16.5t-54 5.5q-51 0 -92.5 -16.5t-81.5 -51.5q-1 14 -4 49t-7 74.5t-7 74.5t-4 49q0 3 0.5 14t0.5 14h235l8 3t18.5 7.5l22 9.5l18.5 8q10 4 19 8.5t15 13.5q-3 10 -9 11t-13 1h-12q-3 -1 -14.5 -4.5l-24.5 -7.5l-25 -7.5t-15 -3.5q-14 -2 -48.5 -4t-74 -3.5t-75 -2.5
t-49.5 -1q-3 -2 -11.5 -11t-10.5 -12v-5v-6q0 -2 2 -8.5t4 -14t3.5 -14t1.5 -8.5q2 -16 5.5 -55.5t7 -84.5l6.5 -84.5t4 -55.5l11 -12q21 22 43 40.5t45.5 32t50 21.5t57.5 8q30 0 66 -11.5t67.5 -32.5t53 -50t21.5 -64v-168q0 -47 -28 -74.5t-67 -44t-81 -27t-71 -23.5
q-2 -1 -10.5 -6t-17.5 -11t-17.5 -11t-10.5 -5q-20 -2 -35 5.5t-26.5 20t-20.5 28l-16.5 28.5t-15 22t-15.5 9q-2 0 -4 -0.5l-2 -0.5q-2 -2 -6.5 -6t-4.5 -5z" />
    <glyph glyph-name="six" unicode="6" horiz-adv-x="358" 
d="M134 797q-23 0 -45 -17t-39.5 -42t-28.5 -52t-11 -46v-292q0 -31 22.5 -72t56 -77.5t71.5 -62t69 -25.5q32 0 54.5 17.5t36.5 43.5t20.5 57t6.5 58q0 68 -38 110t-103 42q-41 0 -63.5 -18.5t-33 -47t-11.5 -62.5t2 -64q-8 4 -17.5 19.5t-18 33.5t-14.5 34.5t-6 24.5v269
q0 31 12 52.5t29.5 38.5t36.5 32t34 35q-3 9 -9 10t-13 1zM145 191q0 2 5.5 11t5.5 11q0 3 -3.5 12.5l-7.5 21l-7.5 21t-4.5 12.5v27q0 19 3.5 37t12.5 31.5t23.5 21.5t36.5 8q50 0 77 -32.5t27 -86.5q0 -18 -4.5 -42.5t-14 -46.5t-25.5 -37t-40 -15q-8 0 -22 4t-27.5 10.5
t-24 15t-10.5 16.5zM111 235q8 0 8 -11t-8 -11t-8 11t8 11z" />
    <glyph glyph-name="seven" unicode="7" horiz-adv-x="481" 
d="M262 448v-359q0 -2 6.5 -15t10.5 -19q1 -2 5 -6t6 -5l12 11v404h89q2 -3 11 -11.5t12 -10.5q0 -1 2 -1h3h4t2 1q2 1 6.5 5t4.5 6q0 1 -4.5 9.5l-6.5 12.5l-13 17.5t-9 10.5h-88q0 1 -1 9.5t-1.5 21.5t0.5 20q2 20 5.5 43.5t9.5 47.5t13.5 47t16.5 41q9 17 27.5 27
l37.5 20t33.5 24.5t14.5 41.5q0 20 -13.5 30l-32.5 25q0 1 -2 1h-4q-20 0 -29.5 -12.5t-16.5 -27.5t-14.5 -27.5t-23.5 -12.5q-17 0 -33 11l-34.5 23.5t-41 23.5t-50.5 11q-34 0 -64.5 -7.5t-53 -24.5t-36 -45t-13.5 -69q0 -10 1.5 -22.5t16.5 -12.5q10 0 13 5.5t3.5 13
t-0.5 15t1 12.5q1 4 5.5 15.5t10 24l10.5 23.5t7 15q24 14 47 19t51 5q25 0 44 -6.5t36.5 -17.5t33.5 -25.5l35 -30.5l11 -11q0 -2 -5 -11.5l-6 -11.5q-2 -5 -5.5 -15l-7 -20.5l-6.5 -19.5t-3 -12q-2 -6 -6.5 -29t-10.5 -49.5l-11 -49.5t-6 -29q-4 -15 -9 -20t-12.5 -6.5
t-18.5 -2t-27 -5.5q-2 0 -6.5 -4.5t-5.5 -6.5q1 -2 5.5 -6t6.5 -5q3 -1 12 -3t18.5 -3.5l18.5 -3t12 -1.5zM419 852h4t2 -1q2 -1 6 -5t5 -6q-7 -12 -17.5 -28.5t-27.5 -16.5h-11q0 1 3.5 10t9 19.5t12 19t14.5 8.5z" />
    <glyph glyph-name="eight" unicode="8" horiz-adv-x="448" 
d="M9 154q0 -67 38 -100t103 -33q49 0 96.5 14t85 42.5t60.5 70.5t23 98q0 38 -18.5 74.5t-44.5 70t-55 62.5l-51 52q0 2 -0.5 8.5t-0.5 8.5q0 24 8 53.5t17.5 60l19 60.5t12.5 56q9 0 31 3.5t45.5 10.5t41 19t17.5 29v5q-1 2 -5 6l-6 6h-6q-11 0 -21 -5.5t-20 -12
t-20.5 -12t-23.5 -5.5q-11 0 -20 3.5t-17 8t-16.5 8.5t-18.5 4q-11 0 -14.5 -7t-3.5 -15q0 -20 6.5 -36.5t6.5 -36.5q0 -54 -17 -102t-40 -96q-23 20 -41.5 40.5t-32 43t-21 48t-7.5 56.5q0 43 7 64t17.5 27.5t23.5 4t24 -5t19.5 -1.5t10.5 15q-3 10 -9.5 15.5t-14.5 7.5
t-17 2h-16q-12 0 -25.5 -3.5t-25 -11t-19.5 -18.5t-8 -25v-135q0 -26 17.5 -48t39 -43t39 -42t17.5 -46q0 -23 -12.5 -44.5t-31.5 -44l-41 -46.5t-41 -52t-31.5 -60.5t-12.5 -70.5zM43 155q0 41 16 77.5t40 69.5t51.5 63.5t50.5 60.5q1 1 4 6t7 11t7 11t4 6q1 0 3 0.5t3 0.5
t3 -0.5t3 -0.5l45.5 -42.5t48 -52t37.5 -58t15 -61.5q0 -46 -21 -81.5t-54 -60t-74.5 -37t-81.5 -12.5q-51 0 -79 23.5t-28 76.5z" />
    <glyph glyph-name="nine" unicode="9" horiz-adv-x="414" 
d="M9 96q0 -31 11.5 -57t31 -44.5t46.5 -29t57 -10.5q24 0 52 6.5t52 20t39.5 35t14.5 51.5q6 145 16 282.5t29 278.5q3 21 10.5 41.5l15.5 41t14 40.5t6 41q0 12 -4.5 26.5t-13 27t-20 21.5t-25.5 9q-2 0 -3.5 -0.5t-2.5 -0.5q-2 -1 -6.5 -5t-4.5 -6v-180q0 -10 -8 -19.5
t-19 -17t-22.5 -13t-17.5 -6.5q-22 -3 -43 12t-39.5 36.5t-32 43.5t-20.5 32v11q0 16 5.5 32t15.5 29t24 21.5t31 8.5q22 0 32.5 -4.5t14 -11.5t2.5 -15.5t-2 -16t1 -13.5t11 -8q18 7 21 19t3 26q0 18 -7 29t-18.5 17t-26 8.5t-28.5 2.5h-17t-17 -1q-18 -14 -33 -27t-25 -27
t-15.5 -30.5t-5.5 -38.5v-11t1 -11q18 -27 33 -53t33 -47t42 -34t60 -13q14 0 26.5 5.5t26.5 5.5q0 -132 -12.5 -262.5t-18.5 -264.5q-3 -25 -13.5 -42t-27.5 -27.5t-38 -15.5t-45 -5q-23 0 -43.5 8t-35.5 22t-24 33.5t-9 43.5q0 16 7 29t16 25t16 23t7 24v6l-6 6t-6 5
q-20 -17 -33 -29t-20.5 -24t-11 -27t-3.5 -38zM369 798q5 -2 5 -6t-5 -6q-5 -1 -5 6t5 6z" />
    <glyph glyph-name="colon" unicode=":" horiz-adv-x="215" 
d="M87 87q-14 -3 -22.5 -14.5t-3.5 -28.5q3 -11 12 -15t19 -4q11 0 22 2t17 4q3 2 16.5 5t16.5 5q1 5 0 18t-2 18q-3 10 -12 13.5t-21 3.5q-11 0 -22.5 -2.5t-19.5 -4.5zM173 317q-4 13 -17.5 22t-28.5 6l-74 -21q-13 -3 -14.5 -13.5t0.5 -18.5q3 -13 15.5 -19.5t28.5 -8.5
t32 -1t26 4q19 5 28 17.5t4 32.5zM123 59q-1 -7 -7 -10t-11 -5l-5 19q5 1 12 1t11 -5zM72 309l4 -17q-9 -2 -16 5q3 9 12 12zM107 287q1 -5 -5.5 -7t-8.5 3q-2 6 5 8t9 -4zM142 318l6 -25q-5 -1 -12 -1q-6 0 -12 2t-11.5 5.5t-6.5 10.5z" />
    <glyph glyph-name="semicolon" unicode=";" horiz-adv-x="205" 
d="M28 289q0 -28 13.5 -47.5t44.5 -19.5q12 0 21.5 13.5t16 31.5t10 36t3.5 27q-12 0 -15.5 -4.5t-11.5 -4.5h-3l-10.5 11t-10.5 10q-1 0 -3 0.5t-4 0.5q-5 0 -11.5 -4t-13.5 -9l-13.5 -10t-11.5 -6q0 -3 -0.5 -12.5t-0.5 -12.5zM85 156q-5 1 -10.5 -0.5t-7.5 3.5
q-6 -2 -10.5 1.5t-10.5 1.5q1 -41 4.5 -84t5.5 -85.5t2.5 -83t-2.5 -76.5h8q-1 -2 1 -2h4q2 1 6 0t4 2q-2 6 1.5 10.5t1.5 10.5q7 78 5.5 157t2.5 156z" />
    <glyph glyph-name="question" unicode="?" horiz-adv-x="470" 
d="M434 227q1 4 0.5 7.5t-5.5 7.5q-4 4 -17.5 4.5t-17.5 -2.5q-1 -1 -2.5 -6t-2.5 -11t-2 -11t-2 -6l-7 -7t-11 -10l-11.5 -9.5t-7.5 -5.5q-1 1 -3 4t-2 4q-1 0 -2 1t-2 1q-2 -6 -5 -7.5t-6.5 -2t-7 -2.5t-5.5 -8q-1 -4 -2 -10t5 -10q-8 1 -13 1.5t-9 0.5q-11 0 -13 -8
t-7 -26q-4 2 -16.5 9t-18.5 7q-12 -2 -17 -6t-9.5 -7t-11 -4t-20.5 3q-9 2 -18.5 12t-17.5 21.5t-13.5 22.5t-7.5 16q0 1 0.5 3.5t1.5 3.5q6 22 22.5 46t40.5 32l166 51q14 4 28 17t26 29.5t20.5 34t12.5 31.5q6 22 5 50t-7.5 55.5t-19 51.5t-30.5 40q-5 4 -12.5 11l-15 14
l-13 12t-6.5 5l-114 29q-1 1 -7 -0.5t-8 -2.5l-20 -7t-29.5 -10t-29 -10t-18.5 -7q-3 -2 -7 -4t-3 -8l-46 -10l-4 -15q28 -7 52.5 0.5t49.5 18t52 17.5t60 -1q37 -10 68 -32t50.5 -52.5t26.5 -67.5t-3 -77q0 -1 -0.5 -2l-0.5 -1q-3 -4 -10 -15l-14.5 -23l-14 -22.5
t-9.5 -14.5q-3 3 -19.5 -1.5t-36 -11t-38 -13.5t-25.5 -9q-19 -6 -31.5 -9t-23.5 -6.5t-22.5 -10t-27.5 -19.5q0 -2 -7 -10.5t-15.5 -20l-16 -22.5t-8.5 -17q-5 -18 2 -32t18 -26l22.5 -23.5t16.5 -24.5q3 -1 12.5 -3.5t11.5 -3.5q23 -6 51.5 -10t52.5 5q5 2 18 11t29.5 22
l34 28t32.5 29.5t25.5 26.5t12.5 18zM399 236q5 -2 3 -9t-7 -5t-3 8.5t7 5.5zM407 241q3 -1 3.5 -3.5t0 -5t-2 -4.5t-4.5 -1q-5 2 -3.5 8.5t6.5 5.5zM237 -23q3 1 12.5 2.5t12.5 2.5q3 -4 9 -9l12.5 -10.5t12 -11t6.5 -10.5q1 -1 1 -4v-3q0 -1 -2.5 -4.5t-5 -8t-5 -8.5
t-2.5 -5l0.5 -1t0.5 -2q2 -8 6.5 -10t8.5 -13q-9 -3 -27.5 -4.5t-37 0.5t-34 8t-18.5 18q-8 29 7.5 47t42.5 26z" />
    <glyph glyph-name="A" unicode="A" horiz-adv-x="443" 
d="M404 -63v-49q0 -1 2.5 -3.5t4.5 -3.5h3q14 0 16.5 11t2.5 19q0 40 -8.5 83.5t-13.5 83.5q-1 5 -3 20.5t-5 36.5l-6.5 45t-6 45l-4.5 36.5t-3 20.5q0 1 -0.5 4.5t-0.5 5.5t0.5 5.5t0.5 5.5q19 -4 30.5 3t11.5 25q0 2 -2.5 4.5t-4.5 2.5q-3 1 -10 2l-14.5 2l-14.5 2t-10 1
q4 30 -3.5 65t-18.5 71.5l-22 72t-13 65.5q0 6 -1 29t-2 49t-2 48.5t-2 28.5q-1 10 -3 25l-4 30t-4 25.5t-3 11.5l-7 7q-6 -5 -9.5 -8.5t-5.5 -7.5t-4.5 -8.5t-8.5 -11.5q-43 -56 -72.5 -104.5t-51 -98.5t-38.5 -106t-35 -127q-1 -5 -6.5 -23l-11.5 -39.5l-11 -40t-6 -23.5
q-1 -6 -1 -30t0.5 -51t0.5 -51v-30q0 -5 -2.5 -22.5t-4.5 -37.5t-4.5 -37.5t-2.5 -21.5t-0.5 -13.5t-1 -20t-0.5 -19.5v-13q8 0 13 4.5t10 11.5q3 44 6.5 83.5t6.5 78.5t5.5 80t2.5 89q11 33 22 79.5l24 98t29 105t36 101t44.5 85t55.5 58.5l1.5 0.5t2.5 0.5l3 -1l7 -35
l7 -7q0 -9 1 -32t2.5 -48.5t2.5 -49t1 -32.5q0 -4 1 -13t2.5 -19t2.5 -19t1 -12q4 -24 11 -47.5l13.5 -46.5t11.5 -46.5t5 -48.5q-55 0 -109.5 6.5t-110.5 6.5h-18l-7 -14q0 -1 -0.5 -2.5t-0.5 -2.5q13 0 26.5 -5.5t24.5 -10.5q9 0 30.5 -1t46.5 -2t46.5 -2t30.5 -2
q6 0 14 -1t16 -2.5t14 -2.5l6 -1l7 -28z" />
    <glyph glyph-name="B" unicode="B" horiz-adv-x="450" 
d="M326 -11l7 -7h4h4q1 1 6 3.5t10.5 6l10.5 6.5t8 5q34 23 49 51t15 70q0 80 -41.5 138t-107.5 100q-5 3 -13.5 9l-16.5 11.5t-13.5 10l-5.5 4.5v7q42 0 74.5 16.5t55 44t34.5 64t12 75.5q0 85 -42 140.5t-120 88.5h-3q-39 0 -65.5 -9.5t-44 -28.5t-27 -46.5t-15.5 -63.5
q-8 -56 -14.5 -119t-6.5 -120q0 -42 2.5 -87.5t5.5 -91t6.5 -89.5l6.5 -83q-1 -1 -4 -1h-3q-10 0 -15 6t-9.5 12.5t-10.5 12.5t-18 6q-9 0 -20 -2.5t-11 -16.5q0 -3 15.5 -13.5t39 -24l50.5 -28.5l50.5 -27.5l39 -21t16.5 -8.5q6 0 21 -0.5t32 -0.5t31.5 0.5t20.5 0.5z
M115 83q0 12 4 22.5t4 22.5q0 57 -4 114.5t-4 115.5q0 18 0.5 29.5t7.5 30.5l98 -46.5t93.5 -57.5t70 -77t27.5 -105q0 -35 -11 -58t-31 -37.5t-47.5 -20.5t-60.5 -6q-11 0 -35.5 9t-49 21t-43.5 24t-19 19zM115 467v42v43q1 10 4 36l6.5 55l6.5 55t5 36q8 34 37 56t65 22h3
q34 -15 62.5 -35t49 -45t32 -57t11.5 -71q0 -38 -14 -72t-39 -59.5t-58.5 -40.5t-72.5 -15q-10 0 -25 5t-29.5 12.5t-26.5 16t-17 16.5z" />
    <glyph glyph-name="C" unicode="C" horiz-adv-x="359" 
d="M10 250q0 -23 0.5 -41t4 -34.5t10.5 -31.5t20 -31q19 -24 33.5 -47t31 -41t38 -28.5t56.5 -10.5q12 0 23.5 6t22 15t18 20t10.5 22q-1 1 -4 1h-3q-10 0 -18 -4.5t-15.5 -10.5t-16 -10.5t-19.5 -4.5q-24 0 -46.5 10.5t-41 28t-32.5 39t-23 43.5q-2 6 -4 15t-10 13v127
l3 8.5t7.5 19.5l9.5 22.5t8 19.5q20 46 40.5 76t47 47t61.5 24t84 8l35 -14q1 0 5 -0.5t5 -0.5q0 17 -4.5 24t-19.5 12h-10t-15 0.5t-15 0.5h-9q-12 0 -28.5 0.5t-33.5 0t-32.5 -4t-25.5 -11.5q-27 -21 -53.5 -53.5t-47.5 -70.5t-34 -78t-13 -75z" />
    <glyph glyph-name="D" unicode="D" horiz-adv-x="359" 
d="M10 165q0 -8 1.5 -25t5.5 -36t11 -34.5t17 -18.5l148 -49q1 0 9 -0.5t13 -0.5q12 0 34 1t44 4t38.5 8t16.5 12q0 29 -4 60t-9.5 62t-11.5 61.5t-10 60.5q-5 39 -8.5 72.5t-5.5 65.5t-3 65.5t-1 72.5q-1 0 -3 -2q-4 -2 -7.5 -7.5t-6.5 -11.5t-5 -11l-2 -5q0 -4 -0.5 -14.5
t-0.5 -22.5v-23v-14q0 -48 3 -93t3 -92q-15 0 -31.5 5.5l-34.5 11.5t-37.5 11.5t-40.5 5.5q-22 0 -44 -9.5t-39 -25.5t-28 -38t-11 -46zM207 37q-24 8 -53.5 13.5t-55 16t-43 29.5t-17.5 54q0 16 9 34.5t23 34.5t32 26.5t35 10.5q4 0 24.5 -4t44 -10t43 -13.5t22.5 -15.5
q2 -7 4 -10t4.5 -5l5.5 -4.5t7 -8.5q1 -7 3 -24t4 -36t4 -36t3 -24v-7q0 -5 -0.5 -8.5t-6.5 -5.5q-29 3 -42 0t-19 -8t-8.5 -9.5t-11.5 -4.5q-1 0 -2.5 0.5l-1.5 0.5q-2 2 -4.5 7t-2.5 7z" />
    <glyph glyph-name="E" unicode="E" horiz-adv-x="513" 
d="M52 171l28.5 -69.5t31 -51t47.5 -31.5t77 -11q26 0 64.5 13.5t74 35t60.5 49t25 54.5q0 6 -1.5 12t-9.5 6q-4 0 -23.5 -22t-48 -48.5t-64 -48.5t-71.5 -22q-77 0 -116.5 44t-52.5 118l-42 239v7q0 39 14.5 74t38.5 66t54.5 56t61.5 43q4 2 14 6l21.5 9l23 10t18.5 10h98
q16 0 30.5 -9.5t27 -24t21.5 -30.5t13 -28q0 -3 0.5 -11t0.5 -17t0.5 -17t0.5 -11q0 -30 -8 -72.5t-26 -81.5t-46 -66t-68 -27q-23 0 -50 8.5t-53.5 20.5t-51.5 25.5l-44 24.5q-5 3 -7.5 8.5t-5.5 11.5t-7 10.5t-11 4.5q-11 0 -18.5 -2.5t-7.5 -13.5q0 -10 1.5 -15t5.5 -7.5
t9 -4.5t13 -6q3 -2 14.5 -8t24.5 -13.5l24.5 -14t14.5 -7.5l31.5 -13.5l38.5 -16.5l33 -13.5t16 -5.5h77q1 0 7 5.5l14 13.5l16 16.5l13 13.5q20 24 35.5 53.5t26.5 61t16.5 64.5t5.5 64v13t-1 9t-2 9.5t-4 14.5l-14 42h-7q-17 19 -31.5 33.5t-30 24.5t-35 14.5t-44.5 4.5
q-64 0 -122.5 -26.5t-103.5 -70.5t-71.5 -102.5t-26.5 -121.5q0 -5 0.5 -13.5t0.5 -9.5z" />
    <glyph glyph-name="F" unicode="F" horiz-adv-x="337" 
d="M10 82q0 -17 6 -31.5t8 -33.5q2 0 5.5 -0.5t5.5 -0.5q9 0 14 4.5t7.5 11t3 14.5t0.5 15q0 17 -3 31.5t-12 29.5v92q2 2 7 10l7 11v3q0 8 -3.5 13.5t-3.5 13.5q0 26 3 52.5t11 50.5q2 0 10.5 0.5t10.5 0.5q17 0 36.5 -2t33.5 -13q8 1 27 3t40.5 4t40 4t26.5 3l35 7
q0 2 0.5 5.5t0.5 5.5q0 15 -11.5 16.5t-22.5 1.5q-29 0 -56 -4t-55 -4t-59 7.5l-57 13.5v28q0 34 5.5 67t8.5 67h4q16 0 39 -6t48.5 -13.5t51 -14t47.5 -8.5q0 -3 2.5 -11t4.5 -10q0 -1 3 -1q4 0 4 1q2 1 6 5l8.5 8.5t8 8.5t5.5 6l0.5 1t0.5 2t-0.5 2t-0.5 2l-21 21
q-57 2 -107.5 17l-103.5 32l-2.5 0.5t-4.5 0.5q-10 0 -15.5 -7t-8 -16t-3.5 -18.5t-1 -15.5l-35 -464v-19z" />
    <glyph glyph-name="G" unicode="G" horiz-adv-x="471" 
d="M73 77q22 9 40 2t34.5 -21t32.5 -29t34 -22q21 -8 37 -8h40q8 0 23.5 -0.5t32 1t30.5 6t20 15.5q5 11 7.5 22.5t13.5 19.5q2 2 10.5 7t10.5 7q8 10 12 23.5t6 28.5t2.5 30t0.5 27q0 14 -3.5 28.5t-3.5 28.5v3q0 2 3 7.5t4 6.5v4v3q-1 2 -3.5 4.5t-3.5 2.5h-176l-14 -7
l-0.5 -6.5t-0.5 -10.5q0 -12 1.5 -25t13.5 -21q5 4 8.5 10t5.5 11h141q8 0 7.5 -9t-0.5 -11q0 -27 -9 -53t-25 -45.5t-39 -31.5t-51 -12q-17 0 -44.5 8.5t-55 22.5t-49.5 31.5t-29 36.5q-4 10 -14 37l-21.5 57.5l-21.5 57.5l-14 38v8t-0.5 12.5t-0.5 12.5v9q0 57 20 91.5
t53.5 53.5t78 25t92.5 6h10h16q9 0 16.5 -0.5t10.5 -0.5q19 -10 31 -23.5t20 -29.5t13.5 -34.5t12.5 -38.5l7 -7q2 -2 4 -2q0 3 0.5 9t1 13l1 13.5t0.5 8.5q0 1 3.5 3.5t3.5 3.5v3q0 13 -8 18.5t-13 13.5q-20 32 -38.5 52t-40 30.5t-50 14t-68.5 3.5q-42 0 -83.5 -21
t-75 -55t-54 -76t-20.5 -85q0 -8 0.5 -16t7.5 -15l42 -247q1 -5 4 -14.5t10 -13.5zM169 71q14 0 25.5 -9t19.5 -20h-4q-5 0 -11.5 2.5t-13.5 7t-11.5 9.5t-4.5 10zM80 137v11q9 -7 16 -17.5t7 -22.5q-14 0 -18.5 8.5t-4.5 20.5zM94 190q4 -1 4 -4q0 -2 -4 -3q-3 -1 -3 3
q0 5 3 4zM57 274h9q4 0 8 -8t7 -18.5t5 -20t2 -13.5q0 -1 -0.5 -5t-0.5 -5q-8 4 -13.5 12t-9.5 18t-5.5 20.5t-1.5 19.5z" />
    <glyph glyph-name="H" unicode="H" horiz-adv-x="478" 
d="M10 45q0 -8 3 -13t11 -5q4 0 8.5 1.5t5.5 6.5l35 176l14 28q1 1 9 3t19.5 4.5t23 4l19.5 2.5q1 0 24 1t54.5 2l64 2t53.5 2h15v-28l-50 -169v-4q0 -5 8 -11t13 -6t9.5 10.5l4.5 10.5q2 9 8 32.5l13 49l13 48.5t9 32q4 13 8.5 22.5t8 18.5t5 18.5t-0.5 24.5l49 246v4v3
q-1 1 -6.5 3.5t-7.5 3.5l-1.5 0.5t-2.5 0.5q-3 0 -8.5 -19.5t-12.5 -49l-15 -64.5l-15 -66t-13 -54t-9 -29q-11 0 -39 -1t-59.5 -2.5t-59.5 -2.5t-39 -1h-42h-43l-7 7v3v4q1 6 3 22t4 34l4 34.5t3 22.5q11 16 17.5 37.5t9.5 44.5t3.5 45.5t0.5 40.5h-17q-2 -9 -5 -21t-9 -21
q-2 -9 -5.5 -27.5t-8.5 -42.5l-10 -49.5l-10 -49.5l-9 -42.5l-6 -27.5q0 -2 -2.5 -10t-4.5 -11q0 -1 -3.5 -6.5t-3.5 -7.5v-12v-20v-20v-11q-2 -15 -6.5 -34l-9.5 -39.5t-8.5 -41t-3.5 -37.5z" />
    <glyph glyph-name="I" unicode="I" horiz-adv-x="140" 
d="M80 231v-308q0 -2 2.5 -7t4.5 -7h3h4l14 7v29t0.5 44.5t0.5 44.5v29q0 41 -1.5 78t-4.5 73.5t-7 73t-9 76.5q0 1 -0.5 7t-0.5 8t0.5 7.5l0.5 5.5q0 1 2.5 5t5 9l4.5 9t2 5q1 7 2.5 20t2.5 28l2 29.5t1 24.5q0 2 -0.5 11.5t-0.5 12.5l-7 7h-3q-6 0 -10.5 -12t-8 -30.5
t-6.5 -40.5t-4.5 -42.5t-2.5 -36.5t-1 -22q0 -20 0.5 -36t2 -31t4.5 -32t8 -39zM10 697v-4l7 -18t12.5 -26t18 -23t22.5 -10q17 0 24 9.5t9 23.5t1 31t0 31t7 23.5t21 9.5q0 5 -6 13t-14.5 15.5t-16.5 13t-11 5.5q-16 0 -27 -10.5t-19.5 -25t-15 -30t-12.5 -25.5v-3zM58 655
q0 7 8.5 8.5t13.5 1.5h7q2 -13 -1.5 -17.5t-11.5 -4.5q-5 0 -10.5 2.5t-5.5 9.5zM45 707q0 1 3.5 8.5t8 16t9.5 15.5t7 9q7 -2 7 -7v-10q0 -14 -4.5 -26t-16.5 -20q-3 0 -8.5 5.5t-5.5 8.5z" />
    <glyph glyph-name="J" unicode="J" horiz-adv-x="506" 
d="M10 -132q0 -17 7 -37.5t19.5 -37.5t29 -28.5t35.5 -11.5q29 0 49 22.5t32 53.5t18 63t7 52v91q30 4 60 21t57 40t50 48t40.5 46l28.5 35t13 14h4l28 -14q2 0 4.5 2.5t2.5 4.5q0 8 -6 14.5t-14 11.5t-17.5 7.5t-15.5 2.5q-8 0 -19.5 -14t-27 -35.5l-34.5 -46t-40 -46
t-44.5 -35.5t-48.5 -14h-7q8 18 8.5 34t5.5 37q6 27 13.5 53t14 52t11 53t4.5 57q0 41 -5 69.5t-19.5 46.5t-40 26.5t-66.5 8.5h-10q-6 0 -13 -0.5t-14 -0.5h-9q-10 -5 -21 -30t-20.5 -55.5t-15.5 -59.5t-6 -42q0 -6 1.5 -11.5t9.5 -5.5h3q2 1 4 3.5t3 3.5q1 13 7 43
t16.5 60t25.5 52t36 21q59 -5 85.5 -30.5t26.5 -85.5q0 -16 -3 -44.5t-9 -62.5t-15 -70t-21.5 -67t-28.5 -53.5t-35 -29.5q-2 0 -7 -1t-11 -2l-11.5 -2t-6.5 -2q-24 -12 -42 -31t-30.5 -42t-19 -49t-6.5 -52zM36 -124q0 37 18 66t40 58q7 -6 12 -7t13 -1q9 0 15 4.5
t10.5 10.5t9 10.5t11.5 4.5q1 0 3.5 -0.5t3.5 -0.5q5 -23 6 -35t1 -32q0 -12 -4.5 -40t-13.5 -57.5t-23 -52t-33 -22.5q-15 0 -27.5 10t-21.5 24.5t-14.5 31t-5.5 28.5z" />
    <glyph glyph-name="K" unicode="K" horiz-adv-x="408" 
d="M10 32q0 -22 12.5 -27.5t31.5 -5.5q9 0 21.5 2t12.5 17v1q0 2 -1 2q-4 0 -15 5.5t-13 8.5v9q0 5 2 20.5t5 36t7 43.5t8.5 43t9.5 34.5t10 17.5q40 -3 73.5 -19t65 -37l63 -42.5t66.5 -34.5q7 2 17.5 9t10.5 15v4l-7 7q-1 0 -6.5 2t-11.5 4.5l-11 4.5t-6 3q-3 1 -14.5 8.5
l-24.5 15.5l-24.5 15.5l-14.5 9.5q-7 4 -31.5 16.5l-51.5 25.5l-49 23.5t-22 11.5q35 57 80.5 108t94.5 96v22h-21l-6 -5.5l-14 -13.5l-16 -16.5t-13 -14.5l-24 -27.5l-36 -42l-36 -42.5l-24 -28q-2 -6 -5.5 -12t-8.5 -10q-7 45 -8 96t1 94q-1 2 -3.5 10.5t-3.5 11.5
q0 4 -0.5 13.5t-0.5 20.5q0 12 -0.5 22t-0.5 14h-12v21q-14 0 -21.5 -10t-10.5 -23.5t-3.5 -27.5t-0.5 -23q0 -5 0.5 -16t0.5 -13l7 -7v-12q0 -10 0.5 -23.5t0.5 -27.5v-22q0 -92 -6 -176.5t-23 -174.5v-10z" />
    <glyph glyph-name="L" unicode="L" horiz-adv-x="274" 
d="M10 -23q4 -13 12 -13.5t16 -0.5h21q12 0 41 1t61 2.5t61 2.5t41 1q0 2 0.5 7t0.5 7q0 12 -4 20.5t-18 14.5l-5 -10.5t-9 -10.5h-183l-7 7v11q0 11 -0.5 24t-0.5 26v22q0 160 15 318q4 35 9 70t5 71q0 5 -0.5 14l-1 18t-2 16t-3.5 7h-21q-1 0 -3.5 -13.5t-3.5 -21.5
q-5 -75 -7.5 -151t-6.5 -151q0 -4 -1.5 -20.5t-2.5 -35.5t-2 -35.5t-1 -20.5v-88v-88z" />
    <glyph glyph-name="M" unicode="M" horiz-adv-x="542" 
d="M10 -13q0 -5 5.5 -9t12 -7.5t12 -5.5l5.5 -2q0 1 0.5 3.5t0.5 3.5q0 2 -0.5 4.5l-0.5 2.5q0 2 -3.5 10.5t-3.5 10.5q0 12 4 26.5t9 29.5t9.5 30t5.5 27q1 2 -2.5 10.5t-4.5 10.5v4v3q17 24 23.5 57t11.5 63q9 49 9 98t-1 98.5t2.5 99t18.5 98.5q4 5 9.5 22t10.5 37.5
t9 39.5l6 28l14 63l3 1q1 0 2.5 -0.5l1.5 -0.5l14 -14q2 -35 3.5 -75.5t7.5 -81t17.5 -78.5t34.5 -68q1 0 3.5 -0.5t3.5 -0.5q14 0 22 15q3 22 6 38t7.5 29t11 25.5t17.5 27.5q12 16 29.5 41.5l34 49l29 40.5l12.5 17h12l59 -739q0 -6 5 -7t9 -1h3q3 0 4 1q5 14 6 21.5
t1 19.5v15l-56 633v106q0 5 4.5 12t9.5 9q-2 1 -10.5 1.5t-10.5 0.5q-5 0 -13 -0.5t-9 -1.5q-3 -1 -15.5 -19l-31 -45.5l-40 -60l-42 -63l-37 -54t-24.5 -32.5q-6 8 -9 20t-5 22q-2 15 -8 53l-13 80.5l-13 80.5t-8 53q-1 1 -4 1h-3q-12 0 -21.5 -22t-17 -49.5t-13.5 -52.5
t-11 -31q-13 -48 -23 -88.5t-17 -80.5t-11.5 -80.5t-5.5 -88.5q0 -6 0.5 -27.5t0.5 -46.5v-47t-1 -27q-3 -35 -13.5 -71l-21.5 -72t-19.5 -71.5t-8.5 -71.5z" />
    <glyph glyph-name="N" unicode="N" horiz-adv-x="450" 
d="M355 91q0 -1 2.5 -3.5t4.5 -3.5h3q10 0 18 24t14 61t10 81l7.5 83l6 67.5t4.5 35.5q0 2 6.5 7t7.5 7l0.5 7.5t0.5 11.5v7t-1 12.5t-4.5 10t-9.5 0.5q9 20 11.5 42t2.5 43q0 3 0.5 11.5t-7.5 8.5q-12 0 -19 -11.5t-10.5 -26t-4.5 -28t-1 -18.5v-21v-35v-36v-21t-1 -15.5
t-2.5 -25t-2.5 -26t-1 -17.5q-2 -17 -5.5 -42l-7 -48.5l-6 -40.5l-2.5 -17h-7q-1 6 -5 19l-8.5 27.5t-9 27.5t-6.5 18l-9 18l-15 30.5l-15.5 31l-9.5 18.5q-14 31 -22.5 54.5t-15.5 46l-14 46.5t-18 57l-7 14l-14 127l-2 0.5t-4 0.5q-11 0 -16 -8.5t-7.5 -19t-3.5 -21.5
t-2 -15t-6.5 -17.5l-12.5 -30.5l-13.5 -33t-10.5 -25q-14 -34 -32 -72t-24 -76l-42 -274l-7 -14v-4v-3q1 -2 3.5 -4.5t3.5 -2.5q5 0 15 3.5t13 10.5q0 5 1 17t2 25.5t2 25t2 16.5q1 2 3 7.5t4 7.5q3 35 6 64.5t7 57t11 54t18 56.5l10.5 27l18 46.5l18 46.5l10.5 27
q2 4 7.5 17t13.5 18q5 -71 28 -136.5t51.5 -129.5l55.5 -128t41 -133zM425 464q5 0 5 -7t-5 -7t-5 7t5 7z" />
    <glyph glyph-name="O" unicode="O" 
d="M9 300q0 -57 9.5 -109t35 -91.5t69 -63t112.5 -23.5q5 0 21 0.5t21 0.5q11 3 21 13t18 22.5t13 25.5t5 23h-8l-56 -56l-5.5 -0.5t-8.5 -0.5q-68 0 -110.5 20t-66.5 55.5t-32.5 84t-8.5 105.5q0 26 8.5 45.5t12.5 42.5q7 43 18 76.5t30 60t48 46.5t73 35q5 2 15.5 4.5
t12.5 2.5t10.5 -1t18 -2.5t17.5 -2.5t10 -1q1 -1 3 -1h4v50h-105q-1 0 -6.5 -2.5t-7.5 -4.5l-8.5 -5.5t-11 -6.5t-10 -6t-5.5 -3q-41 -29 -70.5 -66.5t-48.5 -80.5t-28 -90.5t-9 -95.5zM453 362q0 -42 -10 -82.5t-32 -75.5q-6 -9 -14.5 -18.5t-16.5 -19.5t-14 -20.5
t-6 -21.5q8 0 12.5 5l10.5 12q40 44 69.5 93t29.5 111q0 31 -5.5 62.5t-17 60.5t-30.5 53.5t-46 40.5q-13 8 -27.5 19t-29.5 11v-30q69 -25 98 -76.5t29 -123.5z" />
    <glyph glyph-name="P" unicode="P" horiz-adv-x="344" 
d="M10 83q0 -5 -0.5 -12t0.5 -14.5t4.5 -12.5t10.5 -5q1 0 3.5 1t2.5 2l7 28l21 232q0 2 2.5 4.5t4.5 2.5q33 0 67.5 -7.5t69.5 -7.5q25 0 49.5 10t38.5 33q4 8 11.5 21.5t14 27l11.5 23.5t5 12v134q0 23 -23 41.5t-54 31t-62.5 19t-47.5 6.5q-8 0 -22 -3t-29 -7.5t-27 -11
t-16 -13.5q-4 -68 -11 -134.5l-14 -133t-12 -133t-5 -134.5zM59 351v28q0 26 3.5 54.5t8 57.5l9 56t7.5 50q16 8 32 14.5t34 6.5q14 0 36 -4t44 -11.5t40.5 -19.5t24.5 -28q5 -13 6 -35.5t1 -39.5q0 -79 -33 -118t-115 -39q-8 0 -22.5 0.5t-29.5 3.5t-28 8.5t-18 15.5z" />
    <glyph glyph-name="Q" unicode="Q" horiz-adv-x="302" 
d="M10 149q0 -47 19.5 -74t57.5 -46q10 -5 13.5 -7.5t5 -4t3.5 -2t9 -0.5q43 0 74 17t52 44q24 -31 50.5 -58.5t56.5 -50.5q3 1 7.5 0t5.5 2q3 4 4.5 8t3.5 8q2 5 -1.5 6t-1.5 6q-6 1 -5 5.5t-5 5.5q-4 2 -4.5 5.5t-5.5 4.5q-2 8 -9 11.5t-9 11.5q-18 15 -34 33l-33 36
q21 43 27 95v3q0 18 -7.5 37t-19.5 37t-27 33t-30 23q5 7 12 13t16 8q-5 8 -13.5 11.5t-17.5 3.5q-60 0 -94 -15.5t-53 -44t-28 -69t-19 -90.5v-6zM52 143q0 32 4 65.5t17 60.5t35.5 44.5t60.5 17.5q10 0 26 -15t31 -35t26 -40t11 -29q0 -43 -19 -80q-12 13 -25 25t-27 20
q-2 3 -5.5 5.5t-4.5 7.5q-3 0 -4.5 6.5t-3 14t-3 14t-4.5 6.5q-4 5 -8 5q-3 0 -7 -1.5t-8 -2t-8 3.5l43 -67t46 -67q-17 -21 -39.5 -33.5t-51.5 -12.5q-42 0 -62 22.5t-20 64.5zM205 161q-5 0 -5 4t-5 4q0 4 -3 7z" />
    <glyph glyph-name="R" unicode="R" horiz-adv-x="415" 
d="M17 425q-6 -107 2.5 -219.5t32.5 -216.5q1 -2 3.5 -7.5t3.5 -6.5l3 -1q1 0 2.5 0.5l1.5 0.5q2 1 4.5 3.5t2.5 3.5l1 3q0 1 -0.5 2.5l-0.5 1.5q0 2 -3 7.5t-4 6.5q-11 81 -16.5 163t-5.5 164v16t0.5 24.5t0.5 23.5v17q31 -28 57 -59t50 -63.5l47.5 -66t49.5 -64.5
q29 -36 60 -70t60 -71q7 -10 5.5 -12.5t7.5 -2.5t17 9.5t5 19.5q0 1 -3 4t-7 6.5t-7 6.5l-4 4l-25 29l-35 41.5l-33 39.5l-20 24l-92 115.5l-91 116.5q7 14 30 20t53 10.5t62.5 11t60 23t45.5 45t18 77.5q0 45 -11 74t-32 46.5t-51.5 24t-69.5 6.5q-45 0 -74 -14.5
t-46.5 -38.5t-26.5 -56t-14 -66t-9 -69t-12 -66v-7q0 -5 0.5 -8.5t6.5 -5.5zM188 729q37 0 63.5 -6t43 -21.5t24.5 -41.5t8 -66q0 -35 -20.5 -66t-57.5 -39l-44 -10l-53 -12t-45 -10t-20 -4h-37q0 41 1 89.5t13.5 90t41 69t82.5 27.5z" />
    <glyph glyph-name="S" unicode="S" horiz-adv-x="528" 
d="M10 120q59 -67 134 -120h10q8 0 16.5 -0.5t15.5 -0.5h11q7 0 23.5 2t36.5 5.5t41 9.5t38.5 14t28.5 19t11 24q0 18 -2 37t-7.5 38t-15 35t-24.5 28q-44 25 -80.5 41.5t-62.5 38t-40.5 54t-14.5 89.5q0 11 2.5 19t12.5 19l13.5 14l21 21.5l21.5 21l14 13.5l7 -7h4
q3 0 8.5 3.5t14 7.5t18.5 7.5t21 3.5q30 0 63.5 -4t60.5 -18q16 -8 24 -27t14.5 -38t16.5 -33.5t30 -14.5q12 0 17 11.5t5 22.5q0 6 -0.5 8t-2.5 2.5t-6.5 1t-12.5 4.5q-7 3 -15.5 14t-16.5 23t-14.5 23.5l-9.5 16.5h-8q-32 16 -70 22.5t-75 6.5q-36 0 -68.5 -15t-57 -40
t-39 -58t-14.5 -68q0 -57 18 -88t44.5 -49.5t57.5 -29.5t57.5 -27.5t44.5 -45t18 -80.5q0 -8 -0.5 -14.5t-6.5 -13.5q-12 4 -30.5 -1t-40 -12.5t-44 -14.5t-41.5 -7q-18 0 -34.5 9.5t-31 23t-28 28t-25.5 24.5q2 9 -2.5 16t-12 11t-16.5 6t-15 2h-3l-7 -7v-4v-3z" />
    <glyph glyph-name="T" unicode="T" horiz-adv-x="504" 
d="M179 42q0 -2 5.5 -10t8.5 -11l3 -1q1 0 2.5 0.5l1.5 0.5q6 6 10 18t6 24.5t3.5 24t1.5 17.5q0 9 1 43t2.5 73.5t2.5 73.5t1 43q1 20 4.5 44l7.5 49t7 50t3 48q0 11 -3 15.5t-15 4.5q-9 0 -13 -2.5t-4.5 -7t0 -11t-0.5 -14.5q-1 -7 -4 -35l-6.5 -60.5l-6.5 -60t-4 -34.5
v-14v-22v-22v-13q0 -11 -1 -39t-2.5 -59.5t-2.5 -59.5t-1 -39q-2 -1 -5 -6.5t-2 -7.5zM9 546q0 -5 0.5 -10.5t7.5 -7.5q3 0 14 -0.5t14 -0.5q36 0 71 7t69.5 16t70 17t71.5 10q10 0 35 -0.5t53 -1t53 -1.5t35 -1v-18q8 0 19.5 3t21.5 8t17 13t7 18q0 2 -1 5l-1 3l-35 7
q-3 0 -16 0.5t-29 1t-32 0.5h-23h-33t-42 -0.5t-37.5 -1t-19.5 -0.5q-2 0 -13 -1.5t-24.5 -4l-27 -5t-20.5 -3.5q-13 -3 -35 -10l-46 -14.5t-47 -13t-38 -5.5q-8 0 -15 3.5t-2 18.5q-14 -7 -18 -13.5t-4 -17.5z" />
    <glyph glyph-name="U" unicode="U" horiz-adv-x="352" 
d="M10 95q8 -19 17.5 -37t22 -32t28.5 -22.5t39 -8.5q26 0 46 12t37 31q75 84 108.5 180t33.5 209q0 5 -0.5 12t-0.5 8l-21 7q-2 -5 -4 -18t-3 -18q-1 -4 -3 -21.5l-4.5 -37.5t-4.5 -38t-2 -22q-4 -26 -12.5 -52.5t-19.5 -53t-23.5 -51.5t-22.5 -47q-15 -5 -27.5 -15.5
l-24.5 -21t-25.5 -19t-31.5 -8.5q-14 0 -24.5 7t-19 18t-14 23t-9.5 23v13q0 10 -0.5 21.5t-0.5 21.5v14v18t0.5 22.5t0.5 19.5v10q1 10 4.5 35t8 53t9 53t6.5 35q3 5 9 18.5t5 17.5q0 1 -5.5 6.5t-8.5 7.5h-3q-12 0 -19 -15.5t-11 -35.5t-6 -38t-3 -24q-1 -4 -4 -20.5
t-7 -35.5t-7 -36t-3 -21v-10t-0.5 -21t-0.5 -24v-18v-16q0 -10 0.5 -21.5t0.5 -22.5v-14z" />
    <glyph glyph-name="V" unicode="V" horiz-adv-x="466" 
d="M69 573q-2 5 -6 18l-8.5 28l-8.5 28t-5 18q-1 2 -3 12.5l-4.5 22.5l-4.5 22t-2 13l-2 4t-2 5q-1 -13 -7.5 -19t-5.5 -18q0 -1 1 -5.5l4.5 -19.5t11 -44t21.5 -79l119 -605q1 -5 4.5 -17t8 -24t9.5 -21t10 -9h4l21 21q12 26 27 54.5l30.5 57.5t29.5 58t25 56
q11 28 18 57.5t13 59.5t13.5 59t19.5 56l49 274q0 2 0.5 10.5t0.5 12.5t0.5 12t-0.5 16t-4 14t-10 6q-20 0 -28.5 -14.5t-8.5 -31.5q0 -9 3.5 -18t11.5 -14v-31q0 -44 -7.5 -94.5t-19.5 -102t-25.5 -100t-25.5 -87.5q2 -6 -2 -20t-10 -30.5t-12.5 -31.5t-10.5 -23l-22.5 -45
l-27 -53l-23.5 -44.5t-11 -19.5l-7 -7q-15 20 -22.5 39t-12.5 45z" />
    <glyph glyph-name="W" unicode="W" horiz-adv-x="506" 
d="M108 -46l7 -7h4h3q3 2 7.5 6t9 8.5t8 8.5t4.5 5q1 2 0 10.5t0 10.5q5 35 14.5 74t20 77.5t22 75t20.5 68.5l6 18t12 34l13.5 38l10.5 30q1 2 3.5 7.5t3.5 6.5l1.5 0.5t2.5 0.5l3 -1q18 -26 26.5 -49.5t12 -47t4.5 -49.5t6 -58q1 -9 5 -33l8.5 -51l8.5 -51t6 -34
q8 -14 22 -14h7q18 28 30 61.5t21 68.5t15 70t11 67q2 12 6 38.5l8.5 55.5l8.5 54.5t5 34.5v11q0 8 -1.5 16.5t-12.5 8.5q-8 0 -12 -4.5t-4.5 -11t0.5 -14t2 -13.5q-2 -14 -8 -50l-12.5 -76.5l-12.5 -76.5t-9 -50q-2 -10 -4.5 -27.5t-7 -35.5t-12 -33.5t-18.5 -22.5
q-10 36 -15.5 73t-9.5 74l-8 74t-10 74q-4 26 -16 52.5t-12 53.5v6l49 99q1 0 1 3v6q0 7 -2 13t-10 6h-3l-56 -99l-28 -14q-2 2 -4.5 7t-2.5 7q0 1 3.5 4l3.5 3q0 1 0.5 2t0.5 2t-4.5 4.5l-9.5 7.5l-9.5 7.5t-5.5 5.5q-2 2 -7.5 11l-12 20.5l-13 22t-9.5 16.5
q-8 14 -12.5 25.5t-22.5 11.5v-30q0 -2 5.5 -13.5l13.5 -27.5l16 -32t14 -26q1 -2 7.5 -11.5l13.5 -20l13 -19.5l8 -12q2 -2 4.5 -10.5t2.5 -10.5q0 -22 -11.5 -42.5t-16.5 -41.5q-20 -89 -44.5 -180.5t-54.5 -178.5q0 -1 -2.5 -3.5t-4.5 -3.5h-3q-5 0 -12.5 25.5t-16 64
t-17.5 84.5l-16.5 87.5t-12.5 72.5t-6 39q0 2 -1 13.5t-2 26l-2 29t-2 22.5v8q0 14 8 22t8 23q-2 0 -8 -0.5t-12.5 -2.5t-11.5 -5.5t-5 -9.5v-119l56 -316v-7q1 -7 4 -20.5t3 -15.5l7 -18l10.5 -27.5l10.5 -27.5zM291 453l7 -7h-7v7z" />
    <glyph glyph-name="X" unicode="X" horiz-adv-x="446" 
d="M306 10q2 0 7.5 -1t7.5 -1l1.5 0.5t2.5 0.5q6 2 0.5 29.5t-14 61.5t-17.5 64t-10 37q0 3 -1.5 15.5t-3.5 27t-3.5 27t-2.5 15.5q-2 5 -7 24t-12 42l60 85q12 17 28.5 30t34 25t34 25t28.5 31q-13 9 -34 -2t-43.5 -29t-42 -37.5t-28.5 -26.5l-9 -12.5l-13.5 -18.5
l-14.5 -20l-11 -16q-4 12 -6.5 21t-3.5 13q-1 3 -4.5 18.5l-7.5 32.5l-7.5 32.5t-4.5 18.5q-2 6 -6 19l-8.5 28l-8.5 28.5t-6 18.5q1 1 2.5 4.5t2.5 4.5l-0.5 1.5t-0.5 2.5l-1 3l-5 2.5t-4 1.5q-2 0 -6.5 -2.5l-9.5 -5.5t-9 -7t-4 -8q23 -66 39.5 -133t30.5 -136
q-20 -33 -34.5 -64t-33.5 -68q-1 -1 -5 -7.5t-6 -9.5q-12 -17 -26 -31l-29 -28t-29 -28.5t-26 -30.5q-5 -6 -7 -12.5t5 -14.5q5 -6 15.5 -2.5t14.5 7.5l59.5 58.5t53.5 64.5q3 4 7.5 11.5t5.5 7.5q2 5 7 19l10.5 29.5l10 29t5.5 19.5l9 13l24.5 -112t29.5 -110
q3 -11 6 -19.5l6 -17t7.5 -17.5z" />
    <glyph glyph-name="Y" unicode="Y" horiz-adv-x="367" 
d="M84 32q0 -22 12.5 -27.5t31.5 -5.5q9 0 21.5 2t12.5 17v1q0 2 -1 2q-4 0 -15 5.5t-13 8.5v9q0 7 3 32.5t8.5 56t12 59t13.5 40.5q-1 5 -1.5 8.5t0.5 8.5q2 -1 2 1v4h3q-1 5 2.5 8t7.5 5q0 5 5 5q-1 3 1.5 2t4.5 0v3h2q-1 2 0.5 1.5t2.5 0.5q-1 1 -2 1l-1 1
q35 57 80.5 108t94.5 96v22h-21l-6 -5.5l-14 -13.5l-16 -16.5t-13 -14.5l-24 -27.5l-36 -42l-36 -42.5l-24 -28q-2 -6 -5.5 -12t-8.5 -10q-3 22 -16.5 40.5t-28.5 36t-26.5 35.5t-10.5 39q-1 2 -3.5 10.5t-3.5 11.5q0 4 -0.5 13.5t-0.5 20.5q0 12 -0.5 22t-0.5 14h-12v21
q-14 0 -21.5 -10t-10.5 -23.5t-3.5 -27.5t-0.5 -23q0 -5 0.5 -16t0.5 -13l7 -7q0 -1 11.5 -25.5l25 -55l25 -58.5t11.5 -36q0 -31 -0.5 -51t-1.5 -34.5t-3 -26.5l-4.5 -26.5t-7 -34t-9.5 -49.5v-10z" />
    <glyph glyph-name="Z" unicode="Z" horiz-adv-x="482" 
d="M88 521q27 0 54 -6.5t54.5 -16l54 -19.5t51.5 -16q9 -14 22 -17l25 -6t20.5 -11t8.5 -32q-7 0 -14 0.5t-13 -1t-10 -6t-4 -15.5v-4l7 -14l-24 -28t-23 -24.5t-26 -21t-32 -17.5q-15 -7 -24.5 -9.5l-17 -4.5t-15.5 -6.5t-21 -15.5l-10.5 -10t-17.5 -18t-17.5 -18
l-10.5 -10q-6 -5 -23 -8.5t-34 -7.5t-30.5 -8t-11.5 -11q2 -8 16.5 -17.5t35 -19t44.5 -18.5l45.5 -16.5l37 -13t19.5 -7.5q3 -2 16.5 -10l29 -17.5l29 -18l16.5 -10.5q9 -5 24 -15.5l31.5 -21.5t31 -19t20.5 -8q14 0 20.5 2.5t6.5 16.5q0 5 -13.5 16t-34 25t-46 29.5
l-49 29l-42 24t-26.5 13.5q-29 12 -61.5 23t-65.5 12v7l91 84l7 3.5l7 3.5q1 0 2 0.5t2 0.5t2 -0.5t2 -0.5q-9 -4 -9 -16q12 0 26 1.5t25 7.5l37.5 36t30 32.5t24.5 35.5t20 44q1 2 3.5 7.5t3.5 6.5q7 9 20.5 18t28.5 16.5t30.5 12t27.5 4.5q0 24 -16.5 40t-40.5 16v-12
q-16 0 -30 3.5t-28 8.5l-29 10.5t-33 9.5q-7 2 -8 9t1 12q-11 -5 -17.5 -6t-17.5 -1q-21 0 -40.5 6.5t-39 14.5t-40 14.5t-42.5 6.5zM246 231h3q3 0 4 -1l-21 -7h-7h-7q2 2 10 4.5t11 2.5q0 1 2 1h5zM436 449q5 0 5 -7t-5 -7t-5 7t5 7z" />
    <glyph glyph-name="a" unicode="a" horiz-adv-x="380" 
d="M112 260h4q12 -4 41.5 -13l60.5 -18.5l55.5 -17t25.5 -8.5q8 -8 13.5 -31t9.5 -52.5t7.5 -62t7.5 -59.5t9 -44.5t12 -17.5q9 0 10 7t1 13q0 11 -2 33t-5 49.5t-7 57.5t-8.5 57t-9.5 48.5t-10 30.5q-2 2 -4.5 10t-2.5 11l-57 274q-1 5 -4.5 14.5t-9 19t-12 16.5t-12.5 7
q-8 0 -18 -17t-20 -39t-18 -43t-11 -28q-4 -9 -13 -31l-19 -46.5l-19 -46.5t-13 -31q-2 -7 -8.5 -8t-14.5 -1.5t-14 -4.5t-6 -17q0 -6 2 -12.5t10 -6.5q1 0 2 0.5l1 0.5q2 2 4 10.5t3 10.5q1 1 3.5 -1.5t3.5 -2.5v-10l-70 -204v-50q5 4 8.5 10t5.5 12q2 5 8 22l14 39
l17 47.5l17 48l14 39t8 22.5q1 2 3.5 7.5t3.5 6.5h3zM122 295q0 16 12 48.5t28.5 70l33 72.5l25.5 55q1 1 4 1t9 -15.5t12 -35t11 -38t6 -24.5q10 -43 19.5 -90t9.5 -90v-17q-7 13 -34.5 17.5t-57.5 8t-54 10.5t-24 27z" />
    <glyph glyph-name="b" unicode="b" horiz-adv-x="401" 
d="M52 6q24 -20 52.5 -28t58.5 -8q46 0 87 11t72 33.5t49.5 58t18.5 84.5q0 57 -16 104t-45 85t-71 67t-93 51q8 10 22.5 19t28.5 19t24 21.5t10 27.5q0 1 -0.5 2t-0.5 2q-12 -4 -25 -12.5t-25.5 -19l-24.5 -21t-23 -17.5q-9 -6 -23 -8l-28 -4t-24 -4.5t-10 -8.5v-3
q1 -2 3.5 -4.5l3.5 -3.5l120 -28q1 0 6 -3.5l11.5 -8l13.5 -9t11 -7.5q35 -26 60 -50.5t41.5 -53t24.5 -63t8 -79.5q0 -12 -2.5 -32.5t-9 -39t-19 -30t-32.5 -4.5v-21q-1 0 -7 -2.5l-15 -6l-14 -5.5q-26 -10 -52 -12t-54 -2q-29 0 -55.5 9t-49.5 26q-5 -2 -6 -5.5t-1 -8.5
v-7zM9 313q0 -75 0.5 -153.5t14.5 -153.5h4h3q2 1 4 3.5t3 3.5v32q0 63 -3.5 125.5t-3.5 125.5q0 79 8.5 155t19.5 153q5 33 11.5 64.5t20 56.5t37.5 40.5t66 15.5q31 0 54 -19t38 -47t22 -59t7 -56q15 0 17 13t2 23q0 27 -9.5 57.5t-27 56.5t-42 43t-53.5 17
q-53 0 -82.5 -16t-45 -44t-22.5 -65.5t-14 -80.5q-12 -73 -20.5 -144.5t-8.5 -146.5z" />
    <glyph glyph-name="c" unicode="c" horiz-adv-x="408" 
d="M10 246q0 -14 1 -30t5 -31t11 -28.5t18 -22.5q28 -23 58.5 -45t63.5 -39t68 -27t73 -10q13 0 28.5 3t28.5 9.5t21.5 18t8.5 28.5q-11 0 -20 -4.5t-19.5 -10.5t-24 -10.5t-32.5 -4.5q-23 0 -42 4.5t-36 12.5t-34 18l-36 21l-45.5 25t-38 27t-26.5 35t-10 51q0 45 6 90
t24 81t51 58t87 22q7 0 21 -0.5t15 -1.5q1 0 5 -2l9 -4.5t9 -5t5 -2.5q22 -6 41.5 -10t34.5 -12t23.5 -22.5t8.5 -41.5q6 0 11 5t8.5 12.5t5.5 14.5t2 12q0 14 -12 26.5t-31 23t-43 18.5t-47 13t-43.5 8t-32.5 3q-56 0 -91 -25.5t-54.5 -65.5t-26.5 -89t-7 -95z" />
    <glyph glyph-name="d" unicode="d" horiz-adv-x="344" 
d="M9 158q0 -34 17 -62t44 -47.5t60.5 -30.5t66.5 -11q8 0 30.5 3t46 8t41.5 11t18 13v84l-63 485l-7 21q-14 -5 -18 -11t-4 -20q0 -3 0.5 -10t0.5 -8l35 -253v-7q1 -6 3 -23.5t5 -41.5t6 -51t6 -51t5 -41.5t3 -23.5v-11q0 -14 -13.5 -21.5t-31.5 -11t-36.5 -4.5t-27.5 -1
q-26 0 -54 9.5t-51 26t-38.5 39.5t-15.5 50q0 18 12 31.5t29 22.5t36 13.5t33 4.5h3q9 -3 19 -10t19 -15l16 -14.5t10 -9.5l7 14q0 1 -2 6t-5.5 12l-7 13.5t-6.5 10.5q-9 11 -24.5 16.5t-29.5 5.5q-25 0 -49.5 -8t-44 -22t-31.5 -34.5t-12 -45.5z" />
    <glyph glyph-name="e" unicode="e" horiz-adv-x="295" 
d="M9 316q0 -3 0.5 -8t0.5 -6q0 -2 2.5 -8t4.5 -13t4.5 -13.5t2.5 -7.5q9 -30 19.5 -71t28.5 -78.5t45.5 -63.5t68.5 -26q18 0 35.5 14.5t32 34.5t23 41.5t8.5 35.5q0 10 -2.5 16t-13.5 6q-9 0 -15.5 -17.5l-15 -39t-21.5 -39t-35 -17.5q-21 0 -39 15.5t-33.5 40t-27.5 55
t-20 60.5t-12.5 56.5t-4.5 42.5q0 20 3 43t10.5 44.5t19.5 40.5t30 31q8 5 16 5t12 9q5 10 9.5 18t10.5 13.5t15 8.5t23 3q10 0 21 -13t20.5 -30.5t15.5 -34.5t6 -25q0 -10 -6.5 -31.5t-17 -43.5t-24 -38.5t-26.5 -16.5q-21 0 -34 7.5t-23.5 16.5t-20.5 16.5t-26 7.5
q0 -37 21 -57t59 -20q30 0 53.5 14.5t39.5 37t24.5 51t8.5 56.5q0 24 -6 47.5t-19 42t-32 30t-45 11.5q-15 0 -27.5 -6t-23.5 -15t-21.5 -19t-23.5 -17q-15 -9 -29 -34.5t-25 -55.5t-17.5 -59.5t-6.5 -47.5z" />
    <glyph glyph-name="f" unicode="f" horiz-adv-x="344" 
d="M24 265q0 -32 6 -63l12.5 -62l12.5 -61.5t6 -61.5q15 0 24.5 12t9.5 26q0 15 -6.5 25t-8.5 25q-3 35 -5 72t-2 72v25q7 12 20.5 17.5t29 8t30.5 2.5h28q34 0 68 -7t67 -7q6 0 8 4.5t2 9.5q0 10 -19.5 15.5t-45 8.5t-49.5 3.5t-33 0.5q-29 0 -57 -10t-56 -10
q1 70 0.5 118.5t-1.5 92.5t-2.5 93l-3.5 119q28 0 58 -1t60 -5t59 -11.5t55 -20.5q1 -1 10 -7.5t11 -6.5q11 -2 16.5 8t5.5 18q0 9 -20 18t-50.5 17.5t-67.5 15.5t-71.5 12t-62 8t-38.5 3v-219l-14 -21v-4q0 -7 8 -11t13 -6v-32q0 -56 -3.5 -111t-3.5 -112z" />
    <glyph glyph-name="g" unicode="g" 
d="M475 -40q0 32 -3 63t-10 62h2l-4 11.5t-4 12.5q-6 22 -15 45q-17 57 -31 114l-28 114q-5 7 -12.5 14.5t-15.5 -1.5q-8 -14 -2.5 -28.5t6.5 -29.5q6 -3 5.5 -9.5t3.5 -11.5q-1 -5 0.5 -8.5t3.5 -7.5t3.5 -8t0.5 -8q5 -4 3.5 -10t3.5 -11v-1q-14 19 -31.5 36.5t-37.5 34.5
q-14 11 -28 18t-28.5 12t-29 9.5t-30.5 12.5h-102q-16 0 -29 -20t-23.5 -44l-19 -44t-15.5 -19v-74q5 -5 5.5 -12t0.5 -14q0 -17 -3 -33t-3 -32q0 -22 15.5 -38t39.5 -27t53.5 -18t57.5 -11t50.5 -5.5t33.5 -1.5q20 0 41.5 3t41.5 10.5t37 20t28 31.5q0 -6 2 -21t3.5 -31.5
t3.5 -31t2 -20.5v-8q0 -16 -6 -42.5t-16.5 -57t-25 -62t-32.5 -56.5t-38.5 -41t-42.5 -16q-18 0 -39.5 6.5t-40.5 17.5t-33.5 27t-19.5 36q-2 8 -2 19t-2 21t-7.5 17t-17.5 7q-4 0 -8 -2t-4 -7q0 -4 1 -4q0 -2 2 -7.5t4 -12l4 -12.5t2 -7v-12q-25 -3 -47.5 -9t-45.5 -14v-3
q0 -7 6 -8t11 -1q18 0 35 6t35 6h6l30 -34t36.5 -36t41.5 -28.5t45 -11.5q3 0 8 0.5t6 0.5q10 3 24 8t28 12t26 14.5t18 16.5q28 36 50 67t37 63.5t22.5 69t7.5 84.5zM348 62q-2 0 -17.5 -6l-35.5 -13.5t-41 -14t-34 -6.5q-11 0 -27.5 2.5t-33 6.5l-31 7.5t-22.5 6.5
q-17 5 -25.5 21.5l-15.5 30.5q-10 21 -19 46t-9 48q0 65 36 101t99 36q50 0 93 -18t74.5 -49.5t49 -73.5t17.5 -91q0 -9 -5.5 -13t-13 -5t-16 -0.5t-13.5 2.5l-3 -6t-2 -6q0 -1 2.5 -3t2.5 -3l0.5 -2t0.5 -3t-0.5 -3t-0.5 -3q0 2 -4 6.5t-6 4.5zM457 -72q0 -15 -3.5 -33.5
t-9.5 -37.5t-13 -36t-14 -29q-2 -4 -7.5 -10l-11 -11.5t-10.5 -9.5t-6 -4h-6q15 28 26 52t18 48t10.5 50t3.5 57q0 42 -3.5 81t-3.5 80h4q2 -2 3 -4q1 -6 2.5 -16.5t3.5 -13.5q0 -1 1.5 -6t3.5 -11t4 -11t2 -6q1 -13 2.5 -29t2 -33.5l1 -34.5t0.5 -32zM215 350
q-40 3 -69 -4.5t-63 -18.5h-12q3 4 12 14.5t12 14.5q0 2 2.5 4l2.5 2h92zM31 109q9 -5 13 -18t4 -23q0 -1 -0.5 -3t-0.5 -3q-12 5 -14 10t-2 19v18zM342 39q5 0 5 -6q0 -5 -5 -5t-5 5q0 6 5 6zM244 345l12 -6h-6q-2 0 -4 2.5t-2 3.5z" />
    <glyph glyph-name="h" unicode="h" horiz-adv-x="352" 
d="M285 223q0 -5 1 -16.5t2.5 -25t2.5 -25.5t1 -17q1 -12 2 -38.5t4 -54t8.5 -48.5t16.5 -21q8 0 13 6t5 14q0 47 -7.5 92t-7.5 92v10t0.5 15t0.5 14v10q7 7 12 16t5 20h-17v281q0 2 -5.5 7t-8.5 7q0 1 -4 1h-2q-1 0 -1 -1q-5 -33 -5.5 -71.5t-1.5 -77.5t-3.5 -77t-10.5 -69
q-1 -2 -3.5 -4.5t-3.5 -2.5q-3 -1 -13 -1h-12q-25 0 -48.5 3.5t-47 7.5t-48 7.5t-50.5 3.5q-3 14 -4.5 37.5t-3 50.5t-4 54.5t-7.5 50t-12.5 36.5t-19.5 14v-16q0 -11 0.5 -24.5t1 -25t0.5 -15.5q0 -12 1.5 -39l3.5 -61t4.5 -72.5t4.5 -73.5t4 -63.5l3 -42.5q0 -3 1 -11.5
t2.5 -17.5t2.5 -17t1 -11q2 -10 6 -19t15 -9q4 0 10 2t12 5.5t10 8t4 9.5q0 8 -7.5 10t-14.5 0q-1 7 -3 24t-4.5 36t-4 36t-2.5 24v16q0 12 1 25.5t1.5 25t0.5 16.5q28 0 56 -4.5l56 -9t55.5 -7t55.5 0.5z" />
    <glyph glyph-name="i" unicode="i" horiz-adv-x="154" 
d="M9 -131q0 -5 2 -11t10 -6q7 0 11 8t6 13q6 75 16.5 148l21 146t18.5 147t8 149q-5 0 -12.5 -1t-9.5 -8q-2 -128 -17 -249l-32 -248q-3 -23 -12.5 -44t-9.5 -44zM38 622l14 -7q8 -3 21 -8.5t14 -5.5q9 -2 22 7.5t13 20.5q0 2 -2.5 7t-4.5 7q9 -1 13.5 6t4.5 15h-16
q0 7 2.5 10t6.5 5t8.5 4.5t8.5 8.5q-4 3 -7.5 9.5t-7.5 12.5t-9 10t-11 3q-10 -2 -22.5 -15t-23.5 -30t-18 -34t-6 -26z" />
    <glyph glyph-name="j" unicode="j" horiz-adv-x="506" 
d="M10 -132q0 -17 7 -37.5t19.5 -37.5t29 -28.5t35.5 -11.5q29 0 49 22.5t32 53.5t18 63t7 52v91q30 4 60 21t57 40t50 48t40.5 46l28.5 35t13 14h4q7 15 6.5 21.5t-4.5 8t-10 0.5t-10 -1q-8 0 -19.5 -14t-27 -35.5l-34.5 -46t-40 -46t-44.5 -35.5t-48.5 -14h-7q8 18 8.5 34
t5.5 37q6 27 13.5 53t14 52t11 53t4.5 57q0 41 -5 69.5t-19.5 46.5t-40 26.5t-66.5 8.5h-10q-6 0 -13 -0.5t-14 -0.5h-9q-10 -5 -29.5 -18.5t-38.5 -30t-33 -34.5t-14 -31q0 -6 1.5 -11.5t9.5 -5.5h3q2 1 4 3.5t3 3.5q1 13 15 31.5t34.5 35t43.5 27t44 9.5q59 -5 85.5 -30.5
t26.5 -85.5q0 -16 -3 -44.5t-9 -62.5t-15 -70t-21.5 -67t-28.5 -53.5t-35 -29.5q-2 0 -7 -1t-11 -2l-11.5 -2t-6.5 -2q-24 -12 -42 -31t-30.5 -42t-19 -49t-6.5 -52zM36 -124q0 37 18 66t40 58q3 -3 8 -1.5t10 5t10 6.5t9 3q11 0 15.5 1.5t6 3t3.5 3t9 1.5q1 0 3.5 -0.5
t3.5 -0.5q5 -23 6 -35t1 -32q0 -12 -4.5 -40t-13.5 -57.5t-23 -52t-33 -22.5q-15 0 -27.5 10t-21.5 24.5t-14.5 31t-5.5 28.5z" />
    <glyph glyph-name="k" unicode="k" horiz-adv-x="295" 
d="M59 334q9 -5 13.5 -19l7.5 -23l27 -70l23.5 -62t24.5 -59.5t31 -61.5q6 -12 13.5 -31t18 -37t24.5 -31t35 -13q6 0 6.5 5.5t0.5 8.5q0 10 -7.5 25t-17 30.5l-18.5 29t-13 20.5l-14 27.5l-18 35.5l-16 32.5t-8 17.5q-5 11 -16 39l-23.5 59.5l-23.5 59.5t-15 39q6 10 23 19
t37 15.5t39.5 10.5t31.5 4q4 0 5 -2.5l2 -5t2.5 -5t6.5 -2.5q9 0 14.5 6t8.5 14.5t4.5 18t1.5 15.5q0 10 -8 14t-16 4q-20 0 -44.5 -10l-50.5 -21.5t-51.5 -21.5t-46.5 -10q0 29 7 56t7 56q0 14 -4 17.5t-18 3.5q-17 0 -24.5 -21.5t-10 -50t-1.5 -56.5t1 -41q0 -81 4.5 -158
t2.5 -159q7 -4 10 -12t5.5 -16.5t5 -14.5t10.5 -6h4l14 7v71q2 2 7.5 10t6.5 11l1 3q0 1 -0.5 2.5l-0.5 1.5l-7 3.5l-7 3.5q0 12 -1 41.5t-2.5 63.5t-2.5 63.5t-1 41.5v7v7z" />
    <glyph glyph-name="l" unicode="l" horiz-adv-x="352" 
d="M31 -17q-2 -34 -12.5 -65.5t-10.5 -63.5q8 0 12.5 1t8.5 3.5l9 5.5t14 6q35 12 77 22.5t78 12.5h9t19.5 0.5t22.5 0.5h19q35 0 67.5 -4t66.5 -4h14q9 0 16.5 2t13 6.5t5.5 12.5q0 5 -0.5 8.5t-6.5 5.5q-40 -2 -78.5 3t-78.5 5q-35 0 -66.5 -3t-61.5 -8.5t-60 -13.5
t-63 -18v7v7q0 3 1 9t2.5 12.5t2.5 12.5t1 8q0 15 -0.5 46.5t-0.5 70.5v83v83q0 40 0.5 71.5t0.5 46.5q0 23 -0.5 42t1 36t6 32.5t14.5 30.5q1 1 1.5 3.5t0.5 3.5h-9l-7 42l21 141q2 1 7.5 6.5t6.5 7.5l0.5 1t0.5 2t-0.5 2t-0.5 2q0 4 -1 10.5t-2.5 13t-2.5 12t-1 6.5
l-4.5 10.5t-9.5 10.5q-8 0 -12 -4.5t-6 -11t-2.5 -14t-0.5 -12.5q0 -11 3.5 -18t3.5 -17v-7q-1 -6 -4 -29t-7 -49t-7 -48.5t-3 -28.5q-1 -8 -2 -30.5t-2 -49.5l-2 -52t-1 -37q0 -14 -0.5 -44t-0.5 -67v-79v-78t0.5 -67t0.5 -44zM80 721q5 0 5 -7t-5 -7t-5 7t5 7z" />
    <glyph glyph-name="m" unicode="m" horiz-adv-x="443" 
d="M263 628q22 -38 34 -80t20 -85.5t14 -87t17 -84.5q12 -47 23.5 -97.5t20.5 -102t15 -103t6 -100.5q8 0 12.5 9t6.5 14q0 5 0.5 19.5t0.5 19.5q0 79 -14.5 151l-28.5 148q-9 48 -16.5 104.5t-20 112.5t-32 109.5t-51.5 95.5h-7q-13 0 -21 -14q-14 -34 -25.5 -69.5
t-16.5 -71.5l-7 -7q-4 5 -14 19l-21.5 29.5l-21 29.5l-13.5 20l-25 35t-13 39h-26q2 2 7.5 9t6.5 9q1 0 1 4q0 3 -1 3l-42 7l-7 -7l-1 -23t-2 -54.5l-2 -64.5t-2 -55q-2 -60 -5 -118.5t-3 -118.5v-16q0 -9 0.5 -18.5t0.5 -16.5v-7q0 -4 2.5 -18.5t4.5 -31t4.5 -31t2.5 -18.5
q2 -16 3 -44.5t7.5 -56t21.5 -48t45 -20.5q8 0 8 10v11q0 23 -5 45t-12 44l-14.5 43.5t-11.5 43.5h-21v49h-7q-2 0 -3.5 5t-2.5 11.5t-1 12.5v10v11q0 1 3.5 6.5t3.5 7.5t-2.5 4.5t-4.5 2.5v28v28q1 11 3 28t4.5 32.5t4.5 26.5l2 11h17q0 9 -2 14t-4 9l-4 8t-2 12h-10
q0 29 2 57t2 57q10 0 14 3t4 16h-17v71h7q1 0 14 -18.5l31 -44.5l37 -53.5l31 -45.5q1 -2 6.5 -11.5t11 -20l10.5 -20t7 -11.5q3 -6 6 -7t8 -1q7 0 11 2.5t3 12.5q0 4 -0.5 15t-0.5 23t0.5 23t0.5 16q1 9 4 25.5t7.5 33.5t10.5 30t13 16z" />
    <glyph glyph-name="n" unicode="n" horiz-adv-x="408" 
d="M10 0q2 -8 9 -8h12q14 0 18 3.5t4 17.5q0 16 -1.5 28t-6.5 29q0 1 -2 1h-1q-4 0 -4 -1q-1 0 -3.5 -2.5t-3.5 -4.5v7q0 47 14 92q-1 36 -1.5 67.5t0 61.5t2.5 60.5t6 63.5q6 45 18.5 87t16.5 89l7 7q13 -10 27 -27t26 -36t22 -38l17 -33q4 -8 14 -30.5l21 -48.5l21 -49
t14 -33q1 -4 6 -17t10.5 -29l11 -31t7.5 -22q3 -8 9 -26.5l13.5 -42t17 -49t18.5 -46.5t18 -34.5t16 -13.5q5 0 9.5 2.5t4.5 8.5q0 16 -3.5 34t-10.5 33q1 61 2 128.5t-1 135.5t-7 135.5t-15 128.5l-7 7l-1.5 0.5t-2.5 0.5q-6 0 -8 -4.5t-2 -9.5q0 -60 4.5 -119.5t9.5 -119
t9.5 -119t4.5 -119.5v-2q-2 -2 -7 -4.5t-7 -2.5q-2 2 -4 7t-3 7q-2 5 -8 22l-14 39l-17 47.5l-17 48l-14 39.5t-8 22l-16.5 43t-25 61t-32 67t-36 62t-38 45.5t-38.5 17.5q-9 0 -13 -12t-5 -17q-30 -134 -43.5 -262t-13.5 -266v-15t0.5 -23t0.5 -24v-15z" />
    <glyph glyph-name="o" unicode="o" horiz-adv-x="380" 
d="M10 185q0 -7 -0.5 -19t0 -25.5t2 -25t5.5 -17.5q8 -10 17 -23.5t19.5 -25.5t22.5 -20.5t26 -8.5q64 0 114 32t84 82.5t51.5 111.5t17.5 119q0 27 -1 54.5t-6 53.5t-14.5 50.5t-27.5 46.5q-4 5 -11.5 13.5t-17 16.5t-19.5 14t-19 6q-14 0 -38 -6t-49.5 -16t-47.5 -23
t-31 -26q-11 -38 -28 -74.5t-28 -73.5q-15 -52 -18 -107t-3 -109zM38 199q0 36 2.5 68.5t8.5 63.5t15 62t23 64l19 46t20 30.5t31.5 17t53.5 5.5h3q1 -1 5 -5.5t9 -9t9 -8.5l5 -5q1 0 2 -0.5t2 -0.5q8 0 9.5 10.5t1.5 15.5q0 19 -15 24t-31 5q0 4 5 6t11.5 3t12.5 1h7
q11 0 18 -4t12 -10t10 -13.5t12 -15.5q16 -20 24.5 -41t12.5 -43.5t4.5 -46.5t0.5 -49q0 -48 -13 -104t-40.5 -104t-69.5 -80t-99 -32h-32l-22 39.5t-15 30t-9 32.5t-3 48zM172 591q5 0 5 -7t-5 -7t-5 7t5 7z" />
    <glyph glyph-name="p" unicode="p" horiz-adv-x="363" 
d="M73 257q5 18 8.5 18.5t10.5 -3.5t20.5 -6.5t37.5 9.5q9 5 13 8t11 3q21 0 41.5 -4t41.5 -4h4t2 1q3 1 9.5 4l13.5 6.5l12.5 6.5t6.5 4q5 4 16 14.5l23.5 23l23.5 23.5t15 16l7 35v7q0 31 -12 53.5t-32 37.5t-45.5 22t-53.5 7q-45 0 -84.5 -7t-82.5 -21q-2 -2 -7 -7.5
t-7 -7.5q-4 -5 -11.5 -9.5t-15 -10t-13 -11t-5.5 -11.5v-112l-11 -14v-14t-0.5 -28.5t-0.5 -33.5v-27q0 -25 -0.5 -55.5t0 -63t2.5 -64.5t6 -59q1 -2 6.5 -5t13 -5t14.5 -3.5t10 -1.5q0 21 -4.5 42t-10.5 41.5t-10.5 41t-4.5 42.5v3l7 21q7 -20 10 -40l6 -39.5t8.5 -38.5
t17.5 -37l0.5 -1t0.5 -2t-0.5 -2t-0.5 -2t-3.5 -6.5t-3.5 -7.5q0 -7 9 -17.5t16 -10.5h3l18 13t4 14q0 5 -1 15t-3 20t-6.5 18.5t-11.5 11.5q-1 0 -7 -0.5t-7 0.5q-11 10 -16 38.5t-7.5 61.5t-2.5 64v46h12zM66 345v4q6 31 10.5 59t15 49.5t31 34t59.5 12.5q6 0 21.5 -2
t35.5 -6.5t42 -11t40 -15.5t29.5 -20.5t11.5 -25.5q0 -20 -12 -39.5t-30 -35t-39 -25.5t-39 -10q-14 0 -43 3t-58.5 7.5t-52 10.5t-22.5 11zM52 426l7 -7h-7v7z" />
    <glyph glyph-name="q" unicode="q" horiz-adv-x="366" 
d="M351 -296q0 41 -8 83.5t-8 84.5q0 38 4.5 75t4.5 75v18q-2 10 -4.5 35.5l-5.5 53.5q10 47 17.5 92.5t-2.5 87.5q-2 -1 -6.5 0.5t-3.5 -3.5q-5 2 -3.5 -2t-1.5 -5q-5 -3 -4.5 -8.5t-3.5 -9.5q0 -10 -3.5 -17t-3.5 -17q-1 -5 -1 -9q0 -3 -1 -8q-12 24 -31 42.5t-44 38.5
q-15 4 -25.5 5.5t-24.5 1.5q-27 0 -58.5 -8t-59 -23.5t-45.5 -39.5t-18 -56q0 -20 4.5 -31t12 -18.5t17.5 -15t21 -20.5q1 -2 3 -11t4 -11q6 -9 15 -15t19 -11t19.5 -10.5t15.5 -14.5q-4 -3 -12 -7q3 -2 6.5 -2.5t6.5 -1.5v-3q7 2 5 -5h3v-3q5 1 5 -3q0 -3 3 -4l-1 -1
q2 0 4 0.5t4 0.5l139 7v-285l-8 -8q-1 -5 -1.5 -9.5t-1.5 -9.5q1 -4 -0.5 -6t-1.5 -5l-2 -2q0 -1 -1 -3h9q5 0 8.5 -5t7 -11t6.5 -12t8 -9q15 6 19 25t4 33zM190 282q29 0 49.5 -12.5t33 -32.5t19.5 -45.5t10 -52t3.5 -51.5t0.5 -44q-43 0 -81.5 1t-71 11.5t-59 33.5
t-45.5 67q0 1 -0.5 7.5t-0.5 10.5q0 30 12 50t32 33t45.5 18.5t52.5 5.5z" />
    <glyph glyph-name="r" unicode="r" horiz-adv-x="436" 
d="M44 272q2 0 7.5 1.5t7.5 0.5q2 0 9 -3.5t15.5 -7t15.5 -7t9 -3.5q18 -3 29.5 -2t21.5 2t20.5 0.5t27.5 -7.5t37 -25.5t40.5 -44t40.5 -54.5t37 -57.5t30 -53t19 -39.5h17q0 19 -7 42.5t-17 46.5t-21.5 44t-20.5 36q-4 6 -16.5 19t-29 28.5l-35 32l-35 30t-29 22
t-17.5 8.5h-92q4 10 23.5 14.5t41 12t39 22.5t17.5 46q0 21 -4.5 46.5t-15.5 47.5t-29 36.5t-44 14.5q-40 0 -63 -22t-35.5 -54.5t-16 -69t-4.5 -65.5v-141q0 -4 -1 -18.5t-2 -31t-2.5 -31t-1.5 -18.5v-11q0 -17 6 -37.5t22 -28.5q7 2 7.5 7.5t0.5 10.5q0 7 -2.5 9.5t-5 4
t-5 4t-2.5 8.5q0 58 6.5 117t6.5 118zM136 493q19 0 33 -12t22.5 -30t12.5 -38.5t4 -36.5q0 -2 -0.5 -12t-0.5 -12q-23 -3 -42.5 -11.5t-38.5 -18t-39 -17t-44 -7.5q0 24 1.5 57t10 64t27.5 52.5t54 21.5z" />
    <glyph glyph-name="s" unicode="s" horiz-adv-x="366" 
d="M38 120l85 -85q15 -15 41 -18.5t48 -3.5q15 0 39.5 3t47.5 11t39.5 22t16.5 37q0 58 -20.5 87.5t-51 44t-66.5 20.5t-66.5 16.5t-51 32.5t-20.5 68q0 29 10 49t20 46q1 -1 12.5 5.5l25.5 15t27.5 15.5t18.5 7q42 0 70.5 -28.5t28.5 -69.5q0 -27 -4 -54t-4 -54q14 0 18 5
t5.5 11.5t3 14t9.5 13.5q1 1 7 3.5t7 3.5v3q0 41 -4 75.5t-18.5 59.5t-42 39t-74.5 14q-5 0 -13.5 -0.5t-9.5 -0.5q-33 -9 -55 -24t-37 -34.5t-26 -44l-23 -52.5v-3v-4q0 -2 2.5 -7t4.5 -11t4.5 -11t2.5 -6q1 -2 4 -11.5l6.5 -20.5l6.5 -20.5t4 -11.5q13 -26 37 -38
t52 -18.5t57.5 -10.5t53.5 -13.5t39 -28t15 -53.5q0 -18 -13.5 -30.5t-32 -19.5t-38.5 -10t-33 -3q-12 0 -27.5 8.5t-31.5 19.5t-29.5 23t-20.5 20q-11 10 -16 28t-11 35.5t-14.5 30t-25.5 12.5q-5 0 -13 -2t-4 -13z" />
    <glyph glyph-name="t" unicode="t" horiz-adv-x="539" 
d="M235 -46q2 -11 9.5 -13t14.5 -2q5 0 10.5 0.5t7.5 7.5q5 123 12 249.5t2 250.5l8 14q1 0 13.5 0.5t19.5 0.5q54 0 102.5 -6t103.5 -16q3 -5 4.5 -11.5t3.5 -12.5t5 -11t8 -8q4 1 7 11.5t4.5 23.5t2 24.5t0.5 15.5v10t-7 7q-38 6 -77 9l-78 6t-78 7.5t-77 12.5h-232
q-9 0 -12 -7.5t-3 -13.5q0 -15 15 -15q11 0 15 6.5t15 6.5q0 -1 -1 -5t-1 -8t1 -7t6 -3h188q0 -126 -4 -251t-1 -252q-2 -2 -5 -10t-2 -11z" />
    <glyph glyph-name="u" unicode="u" horiz-adv-x="415" 
d="M10 232q9 -18 9 -34q0 -15 5 -36q10 -42 31.5 -74t52.5 -60q16 -14 28 -21.5t32 -7.5q33 0 59.5 21.5t47.5 55t37 76t28 84t21 78l15 59.5q7 26 17.5 48.5t10.5 50.5q0 14 -9.5 21t-23.5 7q0 -14 -0.5 -19t-1 -8t-2.5 -7t-5 -16l-8.5 -32.5l-12.5 -49.5l-14.5 -58.5
l-14.5 -58.5l-12.5 -50t-8.5 -32q-5 -13 -18 -36.5t-31 -46t-38.5 -38.5t-38.5 -13q-3 1 -14 6.5t-14 7.5q-35 29 -53.5 61.5t-27.5 68.5t-10.5 75t-1.5 82q0 41 0.5 75.5t14.5 73.5q1 3 6.5 8.5t7.5 5.5q2 1 10.5 -3t10.5 -4q1 0 3.5 2.5t3.5 4.5q1 1 1 4q0 14 -12 16.5
t-21 2.5q-13 0 -22.5 -3t-15.5 -20q-9 -24 -14 -45.5t-7 -43t-2 -43.5v-47q0 -5 0.5 -17.5t0.5 -26.5t0.5 -26.5t0.5 -17.5z" />
    <glyph glyph-name="v" unicode="v" horiz-adv-x="436" 
d="M426 582q0 5 -6 13t-12 8h-3q-5 -2 -13 -7.5t-8 -6.5l-35 -204q-21 -26 -14 -56l-57 -190q1 -7 0.5 -16t-3.5 -18t-7.5 -17t-10.5 -12l-14 14l-70 140l-3.5 14.5t-3.5 13.5l-9.5 23.5l-15.5 40l-15.5 40t-8.5 23.5q-4 10 -12 37l-17 57.5l-17 57.5t-11 38h-21l15 -98
q-1 -4 2.5 -5t2.5 -5q7 2 5 -5h3q8 -11 9.5 -24t4.5 -25q5 -21 12.5 -43.5t16.5 -46l18 -45.5l17 -41q2 -6 13 -28.5l24.5 -50.5l26.5 -55.5l20 -41.5q1 -2 4.5 -8t8 -12t9.5 -10.5t10 -4.5q13 0 25.5 25.5t22.5 58t17 62l9 37.5q2 7 7.5 30.5l12.5 54.5l15 66.5l15 66.5
l12.5 54.5t7.5 30.5q5 19 13 33.5t8 36.5z" />
    <glyph glyph-name="w" unicode="w" horiz-adv-x="443" 
d="M39 588q-1 2 -6.5 4.5t-7.5 2.5q-12 -1 -16.5 -10t-3.5 -17q-1 -26 3.5 -51.5t3.5 -51.5v-11v-16t0.5 -16.5t0.5 -10.5q-16 -2 -20 -7t-3 -15q0 -15 10.5 -40.5t22.5 -51.5t20.5 -49t5.5 -34l7 -32.5l10.5 -50.5l10.5 -51t8 -34q5 -17 10.5 -29t22.5 -13q14 0 24.5 11
t18.5 25.5t13.5 30l9.5 26.5q3 8 7 8.5t7.5 1t7 6.5t5.5 26h7l12.5 -36.5t19 -49t22 -43t21.5 -18.5q8 0 14 10t10 23t7.5 25.5t6.5 18.5l11 58.5l12 64.5t12.5 65l12.5 59q11 46 22.5 89t11.5 91v9v13q0 8 -0.5 14t-0.5 9q-9 10 -8.5 18.5t0.5 14.5t-6 9.5t-28 3.5v-80
q6 -8 7 -15t0 -15q1 -2 1 -8v-6q-1 -2 -3 -8l-4.5 -13t-4.5 -13.5t-2 -7.5q-19 -80 -33 -165l-28 -165l-8 -14q-15 11 -25 29.5t-18 39.5t-14.5 41.5t-13.5 35.5q-1 0 -3 0.5t-3 0.5q-12 0 -17 -8t-7 -18.5t-2.5 -21.5t-1.5 -17q-2 -7 -8 -17.5l-12.5 -21t-12.5 -19
l-9 -12.5q-4 -7 -12 -17l-8 -10h-7q-1 0 -4.5 13l-8.5 32l-10 39t-8 34q0 5 -3 24.5t-7 42.5l-7.5 43t-4.5 25q1 2 -2.5 10t-3.5 10q-2 5 -4 19t-4 16q0 6 -1 31t-2 53.5t-2.5 53.5t-1.5 31q0 3 -1 9.5t-2.5 14.5t-2.5 15t-2 10z" />
    <glyph glyph-name="x" unicode="x" horiz-adv-x="337" 
d="M94 127l23.5 -32l28 -39t30.5 -38.5t31 -31.5q1 -2 8.5 -7l15.5 -10.5l15.5 -11t9.5 -6.5q8 -7 15 -17t15 -20t17.5 -17.5t22.5 -8.5q0 2 0.5 7t0.5 7q0 25 -14.5 45t-35 37t-42 32.5t-35.5 32.5q-12 15 -23.5 33l-23 36.5t-24.5 35.5t-28 29q27 24 54 45l54 42t53 44
t50 51q2 2 4.5 7.5t2.5 7.5q0 7 -10 7h-11q-15 0 -27.5 -9t-23 -21.5l-20.5 -25.5t-20 -22l-55 -44t-58 -40v7v7q0 4 -9.5 13.5t-24 22l-32 26.5l-32 26.5t-24.5 22.5t-10 14v8q0 13 -14 13q-3 0 -8 -2.5t-9 -6t-6.5 -7t-0.5 -5.5l144 -175q-2 -5 -12.5 -20.5l-22.5 -33
l-22.5 -32t-14.5 -18.5q-1 -1 -5.5 -6.5l-10 -12.5l-10 -12.5t-6.5 -6.5q-1 -2 -9 -3t-10 -2l-3 -4.5l-5 -7.5q-5 -7 -7.5 -17t8.5 -16q9 -5 19 -2.5t15 11.5l2 2q0 1 -1 4.5t-1 5.5l0.5 1t1.5 2l1 3q1 4 10.5 12.5t22.5 18.5l28 21l28 21q1 0 5.5 4.5l10 10l10 10t4.5 5.5z
" />
    <glyph glyph-name="y" unicode="y" horiz-adv-x="392" 
d="M61 294q3 0 1.5 1t-3.5 2.5t-2.5 3.5t5.5 4q14 6 17.5 6.5l3.5 0.5h2t9 5v3q0 4 19 19t43.5 32l47.5 33.5t31 24.5l24 24l36 36l36 36l24 24q11 4 16 8.5t5 15.5q0 8 -2.5 13t-11.5 5q-3 0 -12 -1.5t-19 -3.5t-18 -5t-8 -7v-4q1 -1 4 -3.5t3 -3.5q1 0 1 -4v-2q0 -1 -1 -1
q-33 -34 -64.5 -61.5t-63.5 -52.5l-65 -50t-67 -54q0 3 -1 12t-2.5 19t-2.5 19t-1 13v11q0 2 1.5 18.5t4.5 39.5l6.5 49.5t7 48.5t6.5 37t6 15q4 0 5 -2.5t2 -5.5t3 -5.5t7 -2.5q1 0 3.5 0.5t3.5 0.5v13q0 9 -1.5 17t-6 14t-12.5 6q-24 0 -35 -20t-15 -46.5t-4.5 -52
t-2.5 -37.5q-5 -24 -9.5 -48t-4.5 -49v-29q0 -3 1 -13.5t2.5 -22.5t2.5 -22t1 -13q0 -2 -3 -10.5t-4 -10.5v-3v-4l7 -7l35 -225q2 -15 11.5 -25t24.5 -10q7 0 11.5 4.5t6.5 11.5t2.5 14t0.5 13q0 7 -4 9t-9 3t-10 4t-6 11q-8 54 -13.5 108.5t-5.5 108.5z" />
    <glyph glyph-name="z" unicode="z" horiz-adv-x="508" 
d="M53 148q0 -6 26.5 -19t68 -29l91 -33.5l96 -33.5l83 -28.5t51.5 -18.5q8 2 7.5 9.5t-0.5 11.5v14q-56 26 -114.5 47t-117.5 38l-65 16.5t-62 25.5l7 7l15 11t13 10l30 19.5l51 33.5l51 33.5l30 19.5q14 9 30 23t31 29l28.5 29l23.5 24l23.5 24.5t18.5 20t15 21t13 26.5v3
v4l-7 14q-121 -5 -237 8l-235 27q-1 0 -8 0.5t-10 0.5q-12 0 -21.5 -5t-9.5 -21q0 -6 8 -10.5t19 -8t21.5 -5t15.5 -1.5q8 0 10 4t10 4h8q6 -1 29.5 -4t51 -7t51 -7t29.5 -3l41 -3.5t61.5 -4.5t61.5 -4t41 -2q-11 -15 -21 -31.5l-20.5 -32.5t-22.5 -30.5t-28 -25.5
l-232 -162l-13 -2.5t-16.5 -4.5t-14.5 -8t-6 -13z" />
    <glyph glyph-name="mu" unicode="&#xb5;" 
d="M185 -35q0 -8 3 -12t12 -9q5 4 9.5 11t8 15t6 16l4.5 14q1 4 3 13t4 19t4 19t3 13l7 7q21 -14 37.5 -17.5t30.5 -6t27 -7t25 -19.5l10 -10.5t11 -10.5q2 1 6.5 7l9.5 12.5t8.5 12t3.5 7.5q0 17 -10 28t-18 25l-30.5 47t-31.5 54.5t-25 56t-10 51.5q3 0 9.5 0.5t13.5 0.5
q8 0 14.5 0.5t9.5 0.5q5 0 12.5 -1t14 -2.5t11.5 -2.5t5 -2v-84l7 -7l7 7l14 84q0 1 1 1h1q4 0 5 -1q2 0 14 -3t14 -4h4q6 0 8 5t2 10q0 9 -5.5 11.5t-12.5 3.5t-12.5 3t-5.5 11q0 14 5.5 29t12.5 28.5l12.5 24t5.5 15.5q0 7 -3.5 12t-3.5 13v3q1 3 5 16.5l9 29l9 29t5 17.5
v7q0 5 -0.5 8.5t-6.5 5.5q-6 -5 -10 -11.5t-7.5 -13.5t-7.5 -14t-10 -11q-6 11 -19.5 28t-22.5 22q-6 3 -15 3q-8 0 -16 1.5t-13.5 7t-5.5 18.5q0 9 1 16.5t6 16.5q3 2 11 8l17 13l17.5 13l11.5 8q4 3 12 8.5t9 5.5t6.5 -3.5t7.5 -3.5q11 0 16.5 8.5t5.5 17.5q0 12 -13.5 18
t-29 9.5l-29 6.5t-13.5 10v64l-7 7q-8 -4 -10.5 -15.5t-4 -24t-4.5 -22t-10 -9.5q-3 0 -13.5 2t-21.5 5.5t-19.5 7t-8.5 6.5q0 1 2.5 6.5t4.5 8.5q11 17 23 32l26 31q1 1 1 3v4q0 5 -1 8.5t-7 5.5l-49 -49q0 5 -3 20t-6.5 30.5t-7.5 28t-7 12.5h-4q-2 -1 -4 -3.5t-3 -3.5
q-15 -38 -37.5 -68.5t-48 -58.5l-51 -56.5t-46.5 -62.5l7 -7h4q8 0 19 7t22 16t20 18.5t13 14.5v-3q0 -14 -5.5 -25.5t-13 -22t-16.5 -20.5t-15 -20v-4v-3l70 -147l-13 13q-5 8 -17 29l-25.5 45l-25.5 45t-17 29q-9 16 -21 25.5t-32 9.5h-3l-7 -7v-3q0 -23 6 -36.5t14 -22
t16 -14.5t13 -15l99 -183v-99l-7 -14l-57 36h-3h-4l-3.5 -3.5t-3.5 -4.5v-3q0 -21 13 -39.5t28.5 -36.5t28.5 -37t13 -41q-2 0 -8 0.5t-12.5 1.5t-12.5 1h-8q-1 0 -3.5 -2.5t-3.5 -4.5q1 -2 3.5 -4t3.5 -3q3 -2 11 -6l17 -8.5l17.5 -8.5t11.5 -5q1 -6 4.5 -18l7.5 -26
t6.5 -27.5t2.5 -20.5q0 -12 -7.5 -21t-7.5 -21zM397 35q5 0 5 -7t-5 -7t-5 7t5 7zM390 49q5 0 5 -7t-5 -7t-5 7t5 7zM383 64q5 0 5 -8q0 -7 -5 -7t-5 7q0 8 5 8zM255 125q0 11 1.5 19t6.5 18l7 -7l7 -14l10.5 -21l10.5 -21l7 -14l-3 -1q-17 0 -32 12t-15 29zM214 127
q5 0 5 -7t-5 -7t-5 7t5 7zM206 250q0 2 0.5 12t0.5 12q18 -20 20 -35.5t2 -38.5q0 -3 0.5 -10t0 -15t-2.5 -15.5t-6 -11.5l-7 7l-1 8.5t-2.5 19.5t-2.5 22.5t-1 19.5q0 1 -0.5 10.5t-0.5 14.5zM135 251q14 0 18.5 -8.5t4.5 -20.5v-11q-9 9 -16 18t-7 22zM284 239q5 0 5 -7
t-5 -7t-5 7t5 7zM277 253q5 0 5 -7t-5 -7t-5 7t5 7zM130 260q5 0 5 -7t-5 -7q-6 0 -6 7t6 7zM411 394v-4q0 -9 -1 -21t-4 -22t-9.5 -17t-17.5 -7h-6q-3 0 -4 1q0 2 2.5 7t4.5 7l7 11l10.5 17l10.5 17zM235 338q5 0 5 -7t-5 -7t-5 7t5 7zM319 464l50 -21v-6q0 -26 -9 -53
t-13 -53h-63q0 41 10.5 69.5zM228 352q5 0 5 -7t-5 -7t-5 7t5 7zM221 366q5 0 5 -7t-5 -7t-5 7t5 7zM214 380q5 0 5 -7t-5 -7t-5 7t5 7zM249 394q3 -2 3 -7t-3 -7q-2 -1 -2.5 1.5t-0.5 5.5t0.5 5.5t2.5 1.5zM207 394q5 0 5 -7t-5 -7t-5 7t5 7zM200 408q5 0 5 -7t-5 -7t-5 7
t5 7zM397 422l-7 -14q-1 0 -1 1v2q0 4 1 4q0 1 2.5 3.5t4.5 3.5zM418 415q5 0 5 -7t-5 -7t-5 7t5 7zM206 479q0 12 3.5 20t18.5 14q1 1 6 -2t8 -5q1 0 3.5 -2.5t3.5 -4.5q-2 -6 -4 -16t-5 -21l-6 -21.5t-6 -18.5q-12 16 -17 28t-5 29zM411 527l10.5 -10t10.5 -11v-3
q0 -9 -8 -24.5t-21 -15.5q0 1 0.5 4t0.5 4q0 3 1 11t2.5 17t2.5 17t1 11zM326 509q0 13 4.5 27.5t9.5 26.5q3 0 9.5 -3.5t13.5 -8t12.5 -9.5t7.5 -8q1 -1 2 -11t1 -15q0 -2 -1 -11.5t-2 -11.5l-7 -7q-1 -1 -8.5 2.5t-16 9l-16.5 10.5t-9 6v3zM263 556q3 -1 3 -4q0 -2 -3 -3
q-3 -2 -3 3t3 4zM129 616v1q0 2 1 2l10 10.5t11 10.5q5 -17 6 -28t1 -28v-21l-8 10.5t-9.5 14t-8 15t-3.5 13.5zM192 602q0 3 0.5 10t7.5 7q4 0 9.5 -2.5t4.5 -4.5l-14 -42q-5 9 -6.5 15.5t-1.5 16.5zM251 606q0 -9 -2.5 -16t-13.5 -7q-1 0 -3.5 0.5t-3.5 0.5q3 8 8 15t15 7
zM249 633q1 5 4 17l6.5 25.5l6.5 25t4 16.5q1 3 3.5 8.5t3.5 5.5q4 1 17.5 -5t17.5 -9q-1 -5 -5.5 -20.5t-10 -32.5t-11 -30.5t-8.5 -14.5q-5 -2 -15 3t-13 11zM249 738v-3q0 -17 -2 -34.5t-8 -31.5t-17 -23t-29 -9v24q0 1 4 7.5l9.5 15.5l11.5 18.5t10 14.5q2 3 10 11
t11 10zM378 711q5 0 11 -0.5t8 -7.5l-28 -21h-4h-4q-1 4 2 15t6 13l3.5 0.5t5.5 0.5zM203 739q1 0 2 -0.5t2 -0.5l-14 -14q0 1 -0.5 2t-0.5 2t0.5 2l0.5 1q0 2 2.5 4.5t4.5 2.5l1 0.5t2 0.5zM256 844v-49q0 -6 -5 -9.5t-11 -5.5t-12 -3t-9 -1q0 18 10.5 38t26.5 30z" />
    <glyph glyph-name="Adieresis" unicode="&#xc4;" horiz-adv-x="549" 
d="M439 14q2 -2 7.5 -6.5t12.5 -9.5t14 -8.5t13 -3.5q7 0 8.5 7.5t1.5 13.5q0 39 -11 80.5t-24.5 83.5t-24.5 85t-11 85v18q13 5 26.5 13t13.5 23q-14 0 -25.5 -4t-25.5 -4h-3l-7 14q-1 4 -4 18.5l-6.5 31l-6.5 31t-4 18.5q-2 4 -10.5 23.5l-19.5 44l-22.5 49t-17.5 38.5
q-6 12 -15.5 27.5t-24.5 15.5q-6 0 -8.5 -0.5t-3.5 -3t-1.5 -7t-3.5 -11.5q-3 -9 -10 -26l-13.5 -34t-12 -30t-6.5 -16q-5 -12 -19 -42l-29.5 -64l-29.5 -63.5l-20 -41.5q-8 -5 -17.5 -24.5t-19.5 -46.5t-18.5 -57.5l-15.5 -58t-11 -48.5t-4 -28q20 0 30.5 18.5t16.5 43.5
t9 50t8 38q19 52 43.5 102.5l48.5 101t46 101.5t38 104h7q7 -24 20.5 -40t22.5 -38q19 -47 31.5 -95.5t31.5 -94.5l-21 -21h-176q-17 0 -23.5 -10.5t-6.5 -24.5h206l28 14l7 -28l5 -30t9 -51t9 -51l5 -30q6 -29 18 -59.5t12 -60.5q0 -2 -0.5 -7.5t-1.5 -6.5zM9 791
q0 -8 4.5 -12t11 -5t14 -0.5t13.5 0.5q46 0 74 30t32 76l-7 7q-8 6 -14 14.5t-10 16.5t-7.5 13.5t-7.5 5.5q-2 0 -3.5 -4t-4.5 -9.5t-9.5 -9.5t-18.5 -4q0 6 2.5 8t5.5 4t5.5 6t2.5 13q-18 0 -27 -5.5t-14 -15t-7.5 -22t-5.5 -25.5q-2 -10 -7 -20l-10 -20.5t-8.5 -21
t-3.5 -20.5zM431 855q0 -28 13.5 -47.5t44.5 -19.5q12 0 21.5 13.5t16 31.5t10 36t3.5 27q-12 0 -15.5 -4.5t-11.5 -4.5h-3l-10.5 11t-10.5 10q-1 0 -3 0.5t-4 0.5q-5 0 -11.5 -4t-13.5 -9l-13.5 -10t-11.5 -6q0 -3 -0.5 -12.5t-0.5 -12.5zM66 841q0 13 15 26.5t28 13.5v-50
q0 -6 -5.5 -7t-9.5 -1q-5 0 -16.5 6t-11.5 12z" />
    <glyph glyph-name="Odieresis" unicode="&#xd6;" 
d="M9 300q0 -57 9.5 -109t35 -91.5t69 -63t112.5 -23.5q5 0 21 0.5t21 0.5q11 3 21.5 13t18.5 23q22 16 46 37.5t45 46.5t36 53t20 57q3 -1 3 1v5q5 6 6 13.5l2 15.5q-13 -37 -36 -69t-51 -63l-10.5 -12t-12.5 -5q0 7 1 11q-9 -11 -18.5 -21.5t-18.5 -21.5h-3l-56 -56
l-5.5 -0.5t-8.5 -0.5q-68 0 -110.5 20t-66.5 55.5t-32.5 84t-8.5 105.5q0 26 8.5 45.5t12.5 42.5q7 43 18 76.5t30 60t48 46.5t73 35q5 2 15.5 4.5t12.5 2.5t10.5 -1t18 -2.5t17.5 -2.5t10 -1q1 -1 3 -1h4v50h-105q-1 0 -6.5 -2.5t-7.5 -4.5l-8.5 -5.5t-11 -6.5t-10 -6
t-5.5 -3q-41 -29 -70.5 -66.5t-48.5 -80.5t-28 -90.5t-9 -95.5zM453 362l5 6q0 -42 -10 -82.5t-32 -75.5q-10 -15 -27 -32.5t-23 -36.5l45.5 54t39.5 60q24 35 30 55.5t6 40.5q0 31 -5.5 62.5t-17 60.5t-30.5 53.5t-46 40.5q-13 8 -27.5 19t-29.5 11v-30q64 -28 90.5 -82.5
t31.5 -123.5zM415 741l-1 1q0 1 -1 2q0 -4 -2.5 -6t-0.5 -7q-3 -10 -3 -21t4 -19t12 -12t21 0q5 7 13.5 12.5t6.5 16.5q2 8 -1 14t-1 14q-3 2 -3.5 5t-4.5 5q-2 4 -7 4q-4 0 -6 4q-6 -2 -12.5 1.5t-10.5 -1.5zM97 708q1 -3 0 -7t3 -6q0 -6 3 -8q0 -6 3.5 -10t1.5 -10
q2 -3 5.5 -4.5t7.5 -3.5q5 1 10.5 0t6.5 5v3h3q0 15 -2.5 28.5t-5.5 27.5q-2 2 -4 2.5t-1 2.5q-10 0 -19.5 -0.5t-11.5 -12.5q-3 1 -2 -3t-3 -4v-3z" />
    <glyph glyph-name="Udieresis" unicode="&#xdc;" horiz-adv-x="513" 
d="M122 175q12 -14 26.5 -29t31 -27t34.5 -20t38 -8q11 0 18.5 1t20.5 6q49 42 78 92t46 104.5t27.5 113.5t24.5 119q4 18 10 35.5l12 35t10 35.5t4 37q-5 0 -12.5 -1.5t-9.5 -8.5q-21 -60 -32 -122.5t-24 -123.5t-33.5 -119.5t-58.5 -112.5l-12 -17t-15 -19.5t-17 -17
t-19 -9.5q-25 -6 -48.5 6.5t-46 36t-41.5 54t-34.5 61t-26 58t-14.5 44.5q-13 54 -20.5 105t-7.5 106q0 13 -1.5 31t-0.5 35.5t7.5 32t22.5 20.5q-2 4 -4.5 10t-5.5 12t-6.5 10t-7.5 4q-5 0 -9 -5.5t-7.5 -12.5t-5.5 -14t-3 -11v-18q0 -12 -0.5 -25.5t-0.5 -26.5v-17
q0 -122 27.5 -227.5t85.5 -212.5zM325 788q0 -15 9.5 -26t26.5 -11q12 0 18 7.5t8.5 18t2.5 21.5v17v35q-5 2 -18 4.5t-18 2.5q-11 0 -16.5 -8t-8.5 -19t-3.5 -22.5t-0.5 -19.5zM125 929q-14 0 -26 -11t-12 -26v-77q0 -13 9.5 -17.5t18.5 -4.5q13 0 22.5 10.5t15.5 25t9 30
t3 26.5q0 20 -10 32t-30 12zM361 815q7 -2 8.5 -9t1.5 -12h-19q0 5 1.5 12t7.5 9zM107 829h17q0 -10 -9 -14q-8 5 -8 14zM137 857q5 0 5 -7t-5 -7q-6 0 -6 7t6 7zM115 899h26q0 -10 -6 -23.5t-20 -13.5v37z" />
    <glyph glyph-name="germandbls" unicode="&#xdf;" 
d="M-16 455q4 4 5 3t4 3q4 0 2.5 2.5t0.5 4.5q4 0 5 2t3 5q4 -1 4 2q0 4 3 3q18 3 31 -12t21.5 -40t12.5 -56t5.5 -61t1 -55.5t-2.5 -38.5q-1 -5 2 -5.5t3 -3.5t2 -3v-1q0 -25 -1.5 -72.5l-3.5 -106.5t-3.5 -123t-1.5 -123t1.5 -106.5t6.5 -72.5h7q2 1 4 3.5t3 3.5v32
q0 21 1.5 75.5l3.5 126.5l4 151.5l4 151.5l3.5 126.5t1.5 75.5q0 39 -10.5 67t-21.5 53.5t-19 53t-2 66.5q5 33 11 64.5t20 56.5t38.5 40.5t65.5 15.5q29 0 50.5 -16.5t36.5 -41t23 -53.5t10 -54q-21 -12 -42 -31.5t-40 -31.5q-9 -6 -23 -8l-28 -4t-24 -4.5t-10 -8.5v-3
q1 -2 3.5 -4.5l3.5 -3.5l120 -28l5.5 -3.5l12 -8l13.5 -9t11 -7.5q34 -26 59.5 -50.5t42 -53t24.5 -63t8 -79.5q0 -12 -6.5 -30t-18 -33.5t-27.5 -24t-36 -1.5v-21q-1 0 -7 -2.5l-15 -6l-14 -5.5q-13 -5 -22 -10l-17.5 -9.5t-18 -7.5t-23.5 -3q-59 0 -105 34q-5 -2 -6 -5.5
t-1 -8.5v-7q24 -19 52.5 -27t58.5 -8q46 0 87 10.5t72 33t49.5 58t18.5 84.5q0 57 -16 104t-45 84.5t-71 67t-93 51.5q7 9 19.5 17l25 16.5t23.5 18.5t15 23q4 6 4.5 14t0.5 15q0 27 -9.5 57.5t-27 56.5t-42 43t-53.5 17q-53 0 -82.5 -16t-45.5 -44t-22.5 -65.5l-13.5 -80.5
q-4 -21 -3.5 -40.5t2.5 -36.5q-16 9 -35 3t-33.5 -21t-19.5 -35t6 -39q2 2 2.5 0t1.5 -4q4 -2 8 -4.5t8 -2.5q0 -2 4 -1t2 3l3 1l-1 3l3 1l-1 3q4 2 0.5 6.5t1.5 6.5q-2 5 -1.5 10t-2.5 11z" />
    <glyph glyph-name="adieresis" unicode="&#xe4;" horiz-adv-x="535" 
d="M133 443q17 0 35.5 -6.5t37 -15l37 -16.5t35.5 -11q3 -1 15.5 -2t26.5 -2t26.5 -2t15.5 -1q1 0 8.5 -1.5t17.5 -4t18.5 -5t11.5 -4.5q9 -7 17 -28t15 -49.5l14 -59.5t14 -57t14.5 -43t16.5 -17q10 0 12.5 5t2.5 13q0 25 -10.5 52.5t-17.5 50.5q-24 83 -52 162t-54 162
q-3 10 -6.5 34t-8.5 54.5t-12 63.5t-17 60.5t-23 45t-31 17.5q-17 0 -29 -15l-42 -80t-36 -76t-32 -77t-30 -84q-2 0 -7.5 -2.5t-6.5 -4.5q-1 0 -1 -3q0 -4 1 -4q0 -1 3.5 -3.5t3.5 -3.5t-2.5 -9t-4.5 -12l-23 -47.5l-28 -59t-24 -59.5t-10 -49v-10t7 -7q9 0 14.5 6.5
t9.5 15.5t6.5 18.5t4.5 15.5l5 14.5t9 24.5l9 24t5 14q2 4 7 15.5l10.5 23.5l11 23t7.5 16h3zM52 232q-19 0 -32.5 -17t-13.5 -34q6 0 17 2.5t22.5 6.5t20 9.5t8.5 11.5q0 8 -5.5 14.5t-16.5 6.5zM306 422l-134 42q-1 0 -9 5.5t-12 8.5q-2 1 -4.5 3.5t-2.5 3.5l-0.5 1.5
t-0.5 2.5l1 3q14 42 31 81t35.5 76.5l37.5 75.5l37 77q31 -23 44 -56.5t18.5 -71t8.5 -76t13 -71.5q3 -10 9 -23l12 -27t10.5 -27.5t4.5 -24.5q0 -1 -0.5 -2l-0.5 -1q0 -2 -2.5 -4.5t-4.5 -2.5l-1 -0.5t-2 -0.5t-2.5 0.5l-1.5 0.5q-2 0 -14 3.5t-14 3.5h-56zM128 856v3h-6
t-1 -5h-6q-6 -9 -5.5 -21.5t5.5 -22t13.5 -13t20.5 5.5q3 4 7 4.5t6 5.5q4 7 2 15t-5 13q1 3 -2 4.5t-1 5.5q0 3 -3 3t-2 2q-6 -2 -9.5 3t-8.5 3zM395 887h-4t-1 3h-3q-2 -15 -1.5 -33t11.5 -26q5 -1 11 -1q7 0 12 2t7.5 6.5t0.5 12.5q1 5 -0.5 9t-1.5 9q4 2 6 7t1 10.5
t-4.5 8.5t-10.5 0q-4 -1 -9.5 0.5t-5.5 -3.5h-6z" />
    <glyph glyph-name="odieresis" unicode="&#xf6;" horiz-adv-x="380" 
d="M10 185q0 -7 -0.5 -19t0 -25.5t2 -25t5.5 -17.5q8 -10 17 -23.5t19.5 -25.5t22.5 -20.5t26 -8.5q64 0 114 32t84 82.5t51.5 111.5t17.5 119q0 27 -1 54.5t-6 53.5t-14.5 50.5t-27.5 46.5q-4 5 -11.5 13.5t-17 16.5t-19.5 14t-19 6q-14 0 -38 -6t-49.5 -16t-47.5 -23
t-31 -26q-11 -38 -28 -74.5t-28 -73.5q-15 -52 -18 -107t-3 -109zM38 199q0 36 2.5 68.5t8.5 63.5t15 62t23 64l19 46t20 30.5t31.5 17t53.5 5.5h3q1 -1 5 -5.5t9 -9t9 -8.5l5 -5q1 0 2 -0.5t2 -0.5q8 0 9.5 10.5t1.5 15.5q0 19 -15 24t-31 5q0 4 5 6t11.5 3t12.5 1h7
q11 0 18 -4t12 -10t10 -13.5t12 -15.5q16 -20 24.5 -41t12.5 -43.5t4.5 -46.5t0.5 -49q0 -48 -13 -104t-40.5 -104t-69.5 -80t-99 -32h-32l-22 39.5t-15 30t-9 32.5t-3 48zM172 591q5 0 5 -7t-5 -7t-5 7t5 7zM49 621v-11q-4 -17 5.5 -29t27.5 -7h4t1 3h3q0 2 2 2v3h3v3
q3 -1 2 3t3 4v13q0 8 -5 10q-3 3 -5.5 6.5t-7.5 1.5q1 3 -1.5 4t-3.5 4q-7 2 -15 2.5t-13 -7.5v-5zM333 677q-5 -10 -10 -21.5t-5 -22.5q8 -6 16.5 -6.5t15 3.5t9.5 11.5t0 17.5q1 3 -2 4.5t-1 5.5q-2 5 -7 5z" />
    <glyph glyph-name="udieresis" unicode="&#xfc;" horiz-adv-x="457" 
d="M10 203q0 -21 2 -44.5t8 -46t17 -43t29 -34.5q5 0 19.5 -0.5t19.5 -0.5q49 0 89 18.5t70 49.5t51 72t33 86q3 10 5 25.5l4 32.5t5 33.5t7 28.5q0 2 6.5 10.5t7.5 10.5v7v14v13v8q5 23 16 43l21.5 39.5t18.5 40.5t8 47q-8 0 -15 -1.5t-14 -6.5v63l-7 7q-15 -7 -23 -35
t-13.5 -62t-9.5 -66t-10 -48q-6 -15 -14 -25.5t-16.5 -19.5t-15.5 -19.5t-11 -26.5q2 -6 5.5 -7t8.5 -1q9 0 13 6.5t6 15t4 15t9 6.5h4q-7 -29 -14.5 -65.5t-18 -74t-26 -73t-37.5 -63.5t-52 -45t-71 -17q-14 0 -25.5 13t-20.5 30t-15 35t-9 28v56v93t9.5 93t33 83t70.5 61
q0 1 2 1h4q10 0 18.5 -4.5t18.5 -4.5q0 9 -6 18t-15 16.5t-19 12.5t-17 5q-2 0 -7 -0.5t-7 -0.5q-30 -20 -49 -46.5t-32.5 -55.5t-24 -60.5l-21.5 -62.5q-3 -48 -5 -90t-2 -87zM411 598q5 0 5 -8q0 -7 -5 -7t-5 7q0 8 5 8zM190 695h-8q-4 -15 5 -24.5t21 -11t21 5.5t4 25
q-1 2 -1.5 5t-3.5 2v3q-1 4 -4.5 3t-5.5 2h-21zM354 744h-4t-1 -3q-5 1 -4.5 -4t-3.5 -6q-2 -8 2 -15.5t11 -7.5q2 -5 7 -3.5t8 -1.5h12q6 0 11 5q2 2 4 2t1 3q4 2 3 5h3q-1 3 0 7t-3 6q2 5 -1.5 6.5t-3.5 6.5q-5 2 -7.5 7t-8.5 3q-1 2 -5 2h-12z" />
    <glyph glyph-name=".null" unicode="&#xe000;" horiz-adv-x="0" 
 />
    <glyph glyph-name="nonmarkingreturn" unicode="&#xe001;" horiz-adv-x="500" 
 />
    </font>
</defs>
</svg>
